<?xml version="1.0" encoding="utf-8"?>
<!-- Generator: Adobe Illustrator 22.1.0, SVG Export Plug-In . SVG Version: 6.00 Build 0)  -->
<svg version="1.1" id="layer_1" xmlns="http://www.w3.org/2000/svg" xmlns:xlink="http://www.w3.org/1999/xlink" x="0px"
  y="0px" viewBox="-5 -5 819 510" style="enable-background:new 0 0 809 500;" xml:space="preserve">
  <style type="text/css">
    #path-lb, #path-lt {
      fill: #F44336; stroke: #F44336;
    } #path-ct { 
      fill: #4CAF50; stroke: #4CAF50;
    } #path-rb, #path-rt {
      fill: #2196F3; stroke: #2196F3;
    }
    .st0 {
      stroke-width: 0; stroke-linejoin: round; stroke-dasharray: 2000; stroke-dashoffset: 0;
    }
  </style>
  <path id="path-lb" class="st0" d="M116.1,355.3L46.5,484.1c0,0-19.1,35-38,0c0,0-18.8-35.1,0-70.4L78,284.9L116.1,355.3z"/>
  <path id="path-ct" class="st0" d="M654.1,355.3l-69.4,128.4c-8.3,14.9-19.1,14.9-19.1,14.9h-53.8c-10.9,0-19.2-14.9-19.2-14.9
    L296.5,120.6c-10.9-20.5-26.9-20.6-26.9-20.6c-15.8,0.1-26.9,20.2-26.9,20.2l-50.5,94.1l-38-70.4l69.5-128.5c8.2-15,19.1-15,19.1-15
    h53.8c10.9,0,19.1,14.9,19.1,14.9l196.1,363.3c10.9,20.5,26.9,20.5,26.9,20.5c15.9,0,26.9-20.6,26.9-20.6l50.5-93.7L654.1,355.3z"/>
  <path id="path-rt" class="st0" d="M730.3,214.3L802.1,81c16.7-30.9-2-65.6-2-65.6c-19.1-35.3-38.3,0-38.3,0l-69.5,128.5L730.3,214.3
    z"/>
  <path id="path-lt" class="st0" d="M385,355.2l-69.5,128.7c-8.2,14.9-19.1,14.9-19.1,14.9h-53.8c-10.9,0-19.1-14.8-19.1-14.8
    L8.6,85.9C-10.5,50,8.1,15.7,8.1,15.7c19.3-35.7,38.6-0.1,38.6-0.1l196,363.3c11,20.2,26.9,20.2,26.9,20.2
    c15.9,0,26.9-20.6,26.9-20.6l50.5-93.9L385,355.2z"/>
  <path id="path-rb" class="st0" d="M461.2,214.2l50.5-93.6c0,0,11-20.6,26.9-20.6c0,0,15.9,0,26.9,20.1L762,483.8
    c0,0,18.7,35.1,38.3,0c0,0,18.3-35.3,0-69.4L584.8,15.3c0,0-8.3-14.9-19.2-15h-53.8c0,0-10.9,0-19.1,15l-69.6,128.4L461.2,214.2z"/>
</svg>