<?xml version="1.0" encoding="UTF-8" standalone="no"?>
<!-- Created with Inkscape (http://www.inkscape.org/) -->

<svg
   xmlns:dc="http://purl.org/dc/elements/1.1/"
   xmlns:cc="http://creativecommons.org/ns#"
   xmlns:rdf="http://www.w3.org/1999/02/22-rdf-syntax-ns#"
   xmlns:svg="http://www.w3.org/2000/svg"
   xmlns="http://www.w3.org/2000/svg"
   xmlns:sodipodi="http://sodipodi.sourceforge.net/DTD/sodipodi-0.dtd"
   xmlns:inkscape="http://www.inkscape.org/namespaces/inkscape"
   width="1280"
   height="320"
   viewBox="0 0 1280 320"
   id="svg4139"
   version="1.1"
   inkscape:version="0.91 r13725"
   sodipodi:docname="scenery-left.svg">
  <defs
     id="defs4141" />
  <sodipodi:namedview
     id="base"
     pagecolor="#ffffff"
     bordercolor="#666666"
     borderopacity="1.0"
     inkscape:pageopacity="0.0"
     inkscape:pageshadow="2"
     inkscape:zoom="0.70710678"
     inkscape:cx="476.73001"
     inkscape:cy="-16.314824"
     inkscape:document-units="px"
     inkscape:current-layer="layer1"
     showgrid="false"
     inkscape:snap-page="true"
     inkscape:snap-grids="false"
     inkscape:snap-bbox="true"
     inkscape:bbox-paths="true"
     inkscape:bbox-nodes="true"
     inkscape:snap-bbox-edge-midpoints="true"
     inkscape:snap-bbox-midpoints="true"
     units="px"
     inkscape:snap-others="true"
     inkscape:object-paths="true" />
  <metadata
     id="metadata4144">
    <rdf:RDF>
      <cc:Work
         rdf:about="">
        <dc:format>image/svg+xml</dc:format>
        <dc:type
           rdf:resource="http://purl.org/dc/dcmitype/StillImage" />
        <dc:title />
      </cc:Work>
    </rdf:RDF>
  </metadata>
  <g
     inkscape:label="レイヤー 1"
     inkscape:groupmode="layer"
     id="layer1"
     transform="translate(0,-732.36218)">
    <g
       transform="matrix(0.9,0,0,0.9,603.48407,654.23619)"
       id="layer1-7"
       inkscape:label="レイヤー 1">
      <path
         inkscape:connector-curvature="0"
         id="path4698-9"
         d="m 409.21674,328.25944 124.47576,0 -62.23788,-62.23788 z"
         style="fill:#2f63f4;fill-opacity:1;fill-rule:evenodd;stroke:#363636;stroke-width:10.00000095;stroke-linecap:butt;stroke-linejoin:round;stroke-miterlimit:4;stroke-dasharray:none;stroke-opacity:1" />
      <path
         sodipodi:nodetypes="cccccc"
         inkscape:connector-curvature="0"
         d="m 212.13014,328.25944 197.0866,0 62.23788,-62.23788 -197.0866,0 -62.23788,62.23788 124.47576,0"
         style="fill:#bbccfc;fill-opacity:1;fill-rule:evenodd;stroke:#363636;stroke-width:10.00000095;stroke-linecap:butt;stroke-linejoin:round;stroke-miterlimit:4;stroke-dasharray:none;stroke-opacity:1"
         id="path4717" />
      <path
         inkscape:connector-curvature="0"
         id="path4722"
         d="m 212.13014,328.25944 0,114.10277"
         style="fill:none;fill-rule:evenodd;stroke:#363636;stroke-width:10.00000095;stroke-linecap:butt;stroke-linejoin:round;stroke-miterlimit:4;stroke-dasharray:none;stroke-opacity:1" />
      <path
         inkscape:connector-curvature="0"
         id="path4724"
         d="m 336.6059,328.25944 0,114.10277"
         style="fill:none;fill-rule:evenodd;stroke:#363636;stroke-width:10.00000095;stroke-linecap:butt;stroke-linejoin:round;stroke-miterlimit:4;stroke-dasharray:none;stroke-opacity:1" />
      <path
         inkscape:connector-curvature="0"
         id="path4726"
         d="m 409.21674,328.25944 0,114.10277"
         style="fill:none;fill-rule:evenodd;stroke:#363636;stroke-width:10.00000095;stroke-linecap:butt;stroke-linejoin:round;stroke-miterlimit:4;stroke-dasharray:none;stroke-opacity:1" />
      <path
         inkscape:connector-curvature="0"
         id="path4728"
         d="m 533.6925,328.25944 0,114.10277"
         style="fill:none;fill-rule:evenodd;stroke:#363636;stroke-width:10.00000095;stroke-linecap:butt;stroke-linejoin:round;stroke-miterlimit:4;stroke-dasharray:none;stroke-opacity:1" />
      <path
         sodipodi:nodetypes="cscc"
         inkscape:connector-curvature="0"
         id="path4730"
         d="m 437.22378,328.25944 c 0,8.8797 -7.1984,16.07812 -16.0781,16.07812 -8.87971,0 -16.07813,-7.19841 -16.07813,-16.07812 z"
         style="opacity:1;fill:#bbccfc;fill-opacity:1;fill-rule:evenodd;stroke:#363636;stroke-width:5.00000048;stroke-linecap:butt;stroke-linejoin:round;stroke-miterlimit:4;stroke-dasharray:none;stroke-opacity:1" />
      <path
         sodipodi:nodetypes="cscc"
         inkscape:connector-curvature="0"
         id="path4730-1"
         d="m 469.38003,328.25944 c 0,8.8797 -7.19841,16.07812 -16.07811,16.07812 -8.87972,0 -16.07814,-7.19841 -16.07814,-16.07812 z"
         style="opacity:1;fill:#2f63f4;fill-opacity:1;fill-rule:evenodd;stroke:#363636;stroke-width:5.00000048;stroke-linecap:butt;stroke-linejoin:round;stroke-miterlimit:4;stroke-dasharray:none;stroke-opacity:1" />
      <path
         sodipodi:nodetypes="cscc"
         inkscape:connector-curvature="0"
         id="path4730-2"
         d="m 501.53627,328.25944 c 0,8.8797 -7.19842,16.07812 -16.07812,16.07812 -8.87971,0 -16.07812,-7.19841 -16.07812,-16.07812 z"
         style="opacity:1;fill:#bbccfc;fill-opacity:1;fill-rule:evenodd;stroke:#363636;stroke-width:5.00000048;stroke-linecap:butt;stroke-linejoin:round;stroke-miterlimit:4;stroke-dasharray:none;stroke-opacity:1" />
      <path
         sodipodi:nodetypes="cscc"
         inkscape:connector-curvature="0"
         id="path4730-6"
         d="m 533.6925,328.25944 c 0,8.8797 -7.19842,16.07812 -16.07812,16.07812 -8.87971,0 -16.07811,-7.19841 -16.07811,-16.07812 z"
         style="opacity:1;fill:#2f63f4;fill-opacity:1;fill-rule:evenodd;stroke:#363636;stroke-width:5.00000048;stroke-linecap:butt;stroke-linejoin:round;stroke-miterlimit:4;stroke-dasharray:none;stroke-opacity:1" />
      <path
         sodipodi:nodetypes="cscc"
         inkscape:connector-curvature="0"
         id="path4730-8"
         d="m 244.28639,328.25944 c 0,8.8797 -7.19841,16.07812 -16.07811,16.07812 -8.87972,0 -16.07814,-7.19841 -16.07814,-16.07812 z"
         style="opacity:1;fill:#bbccfc;fill-opacity:1;fill-rule:evenodd;stroke:#363636;stroke-width:5.00000048;stroke-linecap:butt;stroke-linejoin:round;stroke-miterlimit:4;stroke-dasharray:none;stroke-opacity:1" />
      <path
         sodipodi:nodetypes="cscc"
         inkscape:connector-curvature="0"
         id="path4730-1-5"
         d="m 276.44262,328.25944 c 0,8.8797 -7.19841,16.07812 -16.07811,16.07812 -8.87971,0 -16.07812,-7.19841 -16.07812,-16.07812 z"
         style="opacity:1;fill:#2f63f4;fill-opacity:1;fill-rule:evenodd;stroke:#363636;stroke-width:5.00000048;stroke-linecap:butt;stroke-linejoin:round;stroke-miterlimit:4;stroke-dasharray:none;stroke-opacity:1" />
      <path
         sodipodi:nodetypes="cscc"
         inkscape:connector-curvature="0"
         id="path4730-2-4"
         d="m 308.59886,328.25944 c 0,8.8797 -7.19842,16.07812 -16.07812,16.07812 -8.87971,0 -16.07812,-7.19841 -16.07812,-16.07812 z"
         style="opacity:1;fill:#bbccfc;fill-opacity:1;fill-rule:evenodd;stroke:#363636;stroke-width:5.00000048;stroke-linecap:butt;stroke-linejoin:round;stroke-miterlimit:4;stroke-dasharray:none;stroke-opacity:1" />
      <path
         sodipodi:nodetypes="cscc"
         inkscape:connector-curvature="0"
         id="path4730-6-0"
         d="m 340.75508,328.25944 c 0,8.8797 -7.19841,16.07812 -16.07811,16.07812 -8.87971,0 -16.07811,-7.19841 -16.07811,-16.07812 z"
         style="opacity:1;fill:#2f63f4;fill-opacity:1;fill-rule:evenodd;stroke:#363636;stroke-width:5.00000048;stroke-linecap:butt;stroke-linejoin:round;stroke-miterlimit:4;stroke-dasharray:none;stroke-opacity:1" />
      <path
         sodipodi:nodetypes="cscc"
         inkscape:connector-curvature="0"
         id="path4730-4-4"
         d="m 372.91132,328.25944 c 0,8.8797 -7.19841,16.07812 -16.0781,16.07812 -8.87973,0 -16.07814,-7.19841 -16.07814,-16.07812 z"
         style="opacity:1;fill:#bbccfc;fill-opacity:1;fill-rule:evenodd;stroke:#363636;stroke-width:5.00000048;stroke-linecap:butt;stroke-linejoin:round;stroke-miterlimit:4;stroke-dasharray:none;stroke-opacity:1" />
      <path
         sodipodi:nodetypes="cscc"
         inkscape:connector-curvature="0"
         id="path4730-9-1"
         d="m 405.06755,328.25944 c 0,8.8797 -7.1984,16.07812 -16.0781,16.07812 -8.87971,0 -16.07813,-7.19841 -16.07813,-16.07812 z"
         style="opacity:1;fill:#2f63f4;fill-opacity:1;fill-rule:evenodd;stroke:#363636;stroke-width:5.00000048;stroke-linecap:butt;stroke-linejoin:round;stroke-miterlimit:4;stroke-dasharray:none;stroke-opacity:1" />
    </g>
    <g
       transform="matrix(0.9,0,0,0.9,273.17171,654.23619)"
       id="layer1-9"
       inkscape:label="レイヤー 1">
      <path
         inkscape:connector-curvature="0"
         id="path4698-9-1"
         d="m 409.21674,328.25944 124.47576,0 -62.23788,-62.23788 z"
         style="fill:#2ff467;fill-opacity:1;fill-rule:evenodd;stroke:#363636;stroke-width:10.00000095;stroke-linecap:butt;stroke-linejoin:round;stroke-miterlimit:4;stroke-dasharray:none;stroke-opacity:1" />
      <path
         sodipodi:nodetypes="cccccc"
         inkscape:connector-curvature="0"
         d="m 212.13014,328.25944 197.0866,0 62.23788,-62.23788 -197.0866,0 -62.23788,62.23788 124.47576,0"
         style="fill:#bbfccd;fill-opacity:1;fill-rule:evenodd;stroke:#363636;stroke-width:10.00000095;stroke-linecap:butt;stroke-linejoin:round;stroke-miterlimit:4;stroke-dasharray:none;stroke-opacity:1"
         id="path4717-4" />
      <path
         inkscape:connector-curvature="0"
         id="path4722-5"
         d="m 212.13014,328.25944 0,114.10277"
         style="fill:none;fill-rule:evenodd;stroke:#363636;stroke-width:10.00000095;stroke-linecap:butt;stroke-linejoin:round;stroke-miterlimit:4;stroke-dasharray:none;stroke-opacity:1" />
      <path
         inkscape:connector-curvature="0"
         id="path4724-4"
         d="m 336.6059,328.25944 0,114.10277"
         style="fill:none;fill-rule:evenodd;stroke:#363636;stroke-width:10.00000095;stroke-linecap:butt;stroke-linejoin:round;stroke-miterlimit:4;stroke-dasharray:none;stroke-opacity:1" />
      <path
         inkscape:connector-curvature="0"
         id="path4726-5"
         d="m 409.21674,328.25944 0,114.10277"
         style="fill:none;fill-rule:evenodd;stroke:#363636;stroke-width:10.00000095;stroke-linecap:butt;stroke-linejoin:round;stroke-miterlimit:4;stroke-dasharray:none;stroke-opacity:1" />
      <path
         inkscape:connector-curvature="0"
         id="path4728-8"
         d="m 533.6925,328.25944 0,114.10277"
         style="fill:none;fill-rule:evenodd;stroke:#363636;stroke-width:10.00000095;stroke-linecap:butt;stroke-linejoin:round;stroke-miterlimit:4;stroke-dasharray:none;stroke-opacity:1" />
      <path
         sodipodi:nodetypes="cscc"
         inkscape:connector-curvature="0"
         id="path4730-24"
         d="m 437.22378,328.25944 c 0,8.8797 -7.1984,16.07812 -16.0781,16.07812 -8.87971,0 -16.07813,-7.19841 -16.07813,-16.07812 z"
         style="opacity:1;fill:#bbfccd;fill-opacity:1;fill-rule:evenodd;stroke:#363636;stroke-width:5.00000048;stroke-linecap:butt;stroke-linejoin:round;stroke-miterlimit:4;stroke-dasharray:none;stroke-opacity:1" />
      <path
         sodipodi:nodetypes="cscc"
         inkscape:connector-curvature="0"
         id="path4730-1-9"
         d="m 469.38003,328.25944 c 0,8.8797 -7.19841,16.07812 -16.07811,16.07812 -8.87972,0 -16.07814,-7.19841 -16.07814,-16.07812 z"
         style="opacity:1;fill:#2ff467;fill-opacity:1;fill-rule:evenodd;stroke:#363636;stroke-width:5.00000048;stroke-linecap:butt;stroke-linejoin:round;stroke-miterlimit:4;stroke-dasharray:none;stroke-opacity:1" />
      <path
         sodipodi:nodetypes="cscc"
         inkscape:connector-curvature="0"
         id="path4730-2-3"
         d="m 501.53627,328.25944 c 0,8.8797 -7.19842,16.07812 -16.07812,16.07812 -8.87971,0 -16.07812,-7.19841 -16.07812,-16.07812 z"
         style="opacity:1;fill:#bbfccd;fill-opacity:1;fill-rule:evenodd;stroke:#363636;stroke-width:5.00000048;stroke-linecap:butt;stroke-linejoin:round;stroke-miterlimit:4;stroke-dasharray:none;stroke-opacity:1" />
      <path
         sodipodi:nodetypes="cscc"
         inkscape:connector-curvature="0"
         id="path4730-6-01"
         d="m 533.6925,328.25944 c 0,8.8797 -7.19842,16.07812 -16.07812,16.07812 -8.87971,0 -16.07811,-7.19841 -16.07811,-16.07812 z"
         style="opacity:1;fill:#2ff467;fill-opacity:1;fill-rule:evenodd;stroke:#363636;stroke-width:5.00000048;stroke-linecap:butt;stroke-linejoin:round;stroke-miterlimit:4;stroke-dasharray:none;stroke-opacity:1" />
      <path
         sodipodi:nodetypes="cscc"
         inkscape:connector-curvature="0"
         id="path4730-8-8"
         d="m 244.28639,328.25944 c 0,8.8797 -7.19841,16.07812 -16.07811,16.07812 -8.87972,0 -16.07814,-7.19841 -16.07814,-16.07812 z"
         style="opacity:1;fill:#bbfccd;fill-opacity:1;fill-rule:evenodd;stroke:#363636;stroke-width:5.00000048;stroke-linecap:butt;stroke-linejoin:round;stroke-miterlimit:4;stroke-dasharray:none;stroke-opacity:1" />
      <path
         sodipodi:nodetypes="cscc"
         inkscape:connector-curvature="0"
         id="path4730-1-5-2"
         d="m 276.44262,328.25944 c 0,8.8797 -7.19841,16.07812 -16.07811,16.07812 -8.87971,0 -16.07812,-7.19841 -16.07812,-16.07812 z"
         style="opacity:1;fill:#2ff467;fill-opacity:1;fill-rule:evenodd;stroke:#363636;stroke-width:5.00000048;stroke-linecap:butt;stroke-linejoin:round;stroke-miterlimit:4;stroke-dasharray:none;stroke-opacity:1" />
      <path
         sodipodi:nodetypes="cscc"
         inkscape:connector-curvature="0"
         id="path4730-2-4-6"
         d="m 308.59886,328.25944 c 0,8.8797 -7.19842,16.07812 -16.07812,16.07812 -8.87971,0 -16.07812,-7.19841 -16.07812,-16.07812 z"
         style="opacity:1;fill:#bbfccd;fill-opacity:1;fill-rule:evenodd;stroke:#363636;stroke-width:5.00000048;stroke-linecap:butt;stroke-linejoin:round;stroke-miterlimit:4;stroke-dasharray:none;stroke-opacity:1" />
      <path
         sodipodi:nodetypes="cscc"
         inkscape:connector-curvature="0"
         id="path4730-6-0-9"
         d="m 340.75508,328.25944 c 0,8.8797 -7.19841,16.07812 -16.07811,16.07812 -8.87971,0 -16.07811,-7.19841 -16.07811,-16.07812 z"
         style="opacity:1;fill:#2ff467;fill-opacity:1;fill-rule:evenodd;stroke:#363636;stroke-width:5.00000048;stroke-linecap:butt;stroke-linejoin:round;stroke-miterlimit:4;stroke-dasharray:none;stroke-opacity:1" />
      <path
         sodipodi:nodetypes="cscc"
         inkscape:connector-curvature="0"
         id="path4730-4-4-2"
         d="m 372.91132,328.25944 c 0,8.8797 -7.19841,16.07812 -16.0781,16.07812 -8.87973,0 -16.07814,-7.19841 -16.07814,-16.07812 z"
         style="opacity:1;fill:#bbfccd;fill-opacity:1;fill-rule:evenodd;stroke:#363636;stroke-width:5.00000048;stroke-linecap:butt;stroke-linejoin:round;stroke-miterlimit:4;stroke-dasharray:none;stroke-opacity:1" />
      <path
         sodipodi:nodetypes="cscc"
         inkscape:connector-curvature="0"
         id="path4730-9-1-9"
         d="m 405.06755,328.25944 c 0,8.8797 -7.1984,16.07812 -16.0781,16.07812 -8.87971,0 -16.07813,-7.19841 -16.07813,-16.07812 z"
         style="opacity:1;fill:#2ff467;fill-opacity:1;fill-rule:evenodd;stroke:#363636;stroke-width:5.00000048;stroke-linecap:butt;stroke-linejoin:round;stroke-miterlimit:4;stroke-dasharray:none;stroke-opacity:1" />
    </g>
    <g
       transform="matrix(0.9,0,0,0.9,-57.140652,654.23619)"
       id="layer1-1"
       inkscape:label="レイヤー 1">
      <path
         inkscape:connector-curvature="0"
         id="path4698-9-6"
         d="m 409.21674,328.25944 124.47576,0 -62.23788,-62.23788 z"
         style="fill:#f4672f;fill-opacity:1;fill-rule:evenodd;stroke:#363636;stroke-width:10.00000095;stroke-linecap:butt;stroke-linejoin:round;stroke-miterlimit:4;stroke-dasharray:none;stroke-opacity:1" />
      <path
         sodipodi:nodetypes="cccccc"
         inkscape:connector-curvature="0"
         d="m 212.13014,328.25944 197.0866,0 62.23788,-62.23788 -197.0866,0 -62.23788,62.23788 124.47576,0"
         style="fill:#fccebb;fill-opacity:1;fill-rule:evenodd;stroke:#363636;stroke-width:10.00000095;stroke-linecap:butt;stroke-linejoin:round;stroke-miterlimit:4;stroke-dasharray:none;stroke-opacity:1"
         id="path4717-6" />
      <path
         inkscape:connector-curvature="0"
         id="path4722-0"
         d="m 212.13014,328.25944 0,114.10277"
         style="fill:none;fill-rule:evenodd;stroke:#363636;stroke-width:10.00000095;stroke-linecap:butt;stroke-linejoin:round;stroke-miterlimit:4;stroke-dasharray:none;stroke-opacity:1" />
      <path
         inkscape:connector-curvature="0"
         id="path4724-2"
         d="m 336.6059,328.25944 0,114.10277"
         style="fill:none;fill-rule:evenodd;stroke:#363636;stroke-width:10.00000095;stroke-linecap:butt;stroke-linejoin:round;stroke-miterlimit:4;stroke-dasharray:none;stroke-opacity:1" />
      <path
         inkscape:connector-curvature="0"
         id="path4726-1"
         d="m 409.21674,328.25944 0,114.10277"
         style="fill:none;fill-rule:evenodd;stroke:#363636;stroke-width:10.00000095;stroke-linecap:butt;stroke-linejoin:round;stroke-miterlimit:4;stroke-dasharray:none;stroke-opacity:1" />
      <path
         inkscape:connector-curvature="0"
         id="path4728-6"
         d="m 533.6925,328.25944 0,114.10277"
         style="fill:none;fill-rule:evenodd;stroke:#363636;stroke-width:10.00000095;stroke-linecap:butt;stroke-linejoin:round;stroke-miterlimit:4;stroke-dasharray:none;stroke-opacity:1" />
      <path
         sodipodi:nodetypes="cscc"
         inkscape:connector-curvature="0"
         id="path4730-28"
         d="m 437.22378,328.25944 c 0,8.8797 -7.1984,16.07812 -16.0781,16.07812 -8.87971,0 -16.07813,-7.19841 -16.07813,-16.07812 z"
         style="opacity:1;fill:#fccdbb;fill-opacity:1;fill-rule:evenodd;stroke:#363636;stroke-width:5.00000048;stroke-linecap:butt;stroke-linejoin:round;stroke-miterlimit:4;stroke-dasharray:none;stroke-opacity:1" />
      <path
         sodipodi:nodetypes="cscc"
         inkscape:connector-curvature="0"
         id="path4730-1-2"
         d="m 469.38003,328.25944 c 0,8.8797 -7.19841,16.07812 -16.07811,16.07812 -8.87972,0 -16.07814,-7.19841 -16.07814,-16.07812 z"
         style="opacity:1;fill:#f4672f;fill-opacity:1;fill-rule:evenodd;stroke:#363636;stroke-width:5.00000048;stroke-linecap:butt;stroke-linejoin:round;stroke-miterlimit:4;stroke-dasharray:none;stroke-opacity:1" />
      <path
         sodipodi:nodetypes="cscc"
         inkscape:connector-curvature="0"
         id="path4730-2-6"
         d="m 501.53627,328.25944 c 0,8.8797 -7.19842,16.07812 -16.07812,16.07812 -8.87971,0 -16.07812,-7.19841 -16.07812,-16.07812 z"
         style="opacity:1;fill:#fccdbb;fill-opacity:1;fill-rule:evenodd;stroke:#363636;stroke-width:5.00000048;stroke-linecap:butt;stroke-linejoin:round;stroke-miterlimit:4;stroke-dasharray:none;stroke-opacity:1" />
      <path
         sodipodi:nodetypes="cscc"
         inkscape:connector-curvature="0"
         id="path4730-6-8"
         d="m 533.6925,328.25944 c 0,8.8797 -7.19842,16.07812 -16.07812,16.07812 -8.87971,0 -16.07811,-7.19841 -16.07811,-16.07812 z"
         style="opacity:1;fill:#f4672f;fill-opacity:1;fill-rule:evenodd;stroke:#363636;stroke-width:5.00000048;stroke-linecap:butt;stroke-linejoin:round;stroke-miterlimit:4;stroke-dasharray:none;stroke-opacity:1" />
      <path
         sodipodi:nodetypes="cscc"
         inkscape:connector-curvature="0"
         id="path4730-8-89"
         d="m 244.28639,328.25944 c 0,8.8797 -7.19841,16.07812 -16.07811,16.07812 -8.87972,0 -16.07814,-7.19841 -16.07814,-16.07812 z"
         style="opacity:1;fill:#fccdbb;fill-opacity:1;fill-rule:evenodd;stroke:#363636;stroke-width:5.00000048;stroke-linecap:butt;stroke-linejoin:round;stroke-miterlimit:4;stroke-dasharray:none;stroke-opacity:1" />
      <path
         sodipodi:nodetypes="cscc"
         inkscape:connector-curvature="0"
         id="path4730-1-5-4"
         d="m 276.44262,328.25944 c 0,8.8797 -7.19841,16.07812 -16.07811,16.07812 -8.87971,0 -16.07812,-7.19841 -16.07812,-16.07812 z"
         style="opacity:1;fill:#f4672f;fill-opacity:1;fill-rule:evenodd;stroke:#363636;stroke-width:5.00000048;stroke-linecap:butt;stroke-linejoin:round;stroke-miterlimit:4;stroke-dasharray:none;stroke-opacity:1" />
      <path
         sodipodi:nodetypes="cscc"
         inkscape:connector-curvature="0"
         id="path4730-2-4-4"
         d="m 308.59886,328.25944 c 0,8.8797 -7.19842,16.07812 -16.07812,16.07812 -8.87971,0 -16.07812,-7.19841 -16.07812,-16.07812 z"
         style="opacity:1;fill:#fccdbb;fill-opacity:1;fill-rule:evenodd;stroke:#363636;stroke-width:5.00000048;stroke-linecap:butt;stroke-linejoin:round;stroke-miterlimit:4;stroke-dasharray:none;stroke-opacity:1" />
      <path
         sodipodi:nodetypes="cscc"
         inkscape:connector-curvature="0"
         id="path4730-6-0-8"
         d="m 340.75508,328.25944 c 0,8.8797 -7.19841,16.07812 -16.07811,16.07812 -8.87971,0 -16.07811,-7.19841 -16.07811,-16.07812 z"
         style="opacity:1;fill:#f4672f;fill-opacity:1;fill-rule:evenodd;stroke:#363636;stroke-width:5.00000048;stroke-linecap:butt;stroke-linejoin:round;stroke-miterlimit:4;stroke-dasharray:none;stroke-opacity:1" />
      <path
         sodipodi:nodetypes="cscc"
         inkscape:connector-curvature="0"
         id="path4730-4-4-8"
         d="m 372.91132,328.25944 c 0,8.8797 -7.19841,16.07812 -16.0781,16.07812 -8.87973,0 -16.07814,-7.19841 -16.07814,-16.07812 z"
         style="opacity:1;fill:#fccdbb;fill-opacity:1;fill-rule:evenodd;stroke:#363636;stroke-width:5.00000048;stroke-linecap:butt;stroke-linejoin:round;stroke-miterlimit:4;stroke-dasharray:none;stroke-opacity:1" />
      <path
         sodipodi:nodetypes="cscc"
         inkscape:connector-curvature="0"
         id="path4730-9-1-3"
         d="m 405.06755,328.25944 c 0,8.8797 -7.1984,16.07812 -16.0781,16.07812 -8.87971,0 -16.07813,-7.19841 -16.07813,-16.07812 z"
         style="opacity:1;fill:#f4672f;fill-opacity:1;fill-rule:evenodd;stroke:#363636;stroke-width:5.00000048;stroke-linecap:butt;stroke-linejoin:round;stroke-miterlimit:4;stroke-dasharray:none;stroke-opacity:1" />
    </g>
    <path
       style="fill:#363636;fill-opacity:1"
       d="m 56.406399,1052.1033 c -3.36542,-5.6897 -5.577977,-10.3889 -9.076405,-16.3968 -0.101248,-0.011 -8.237118,14.6635 -8.621636,15.543 -0.147325,0.3369 -0.312672,0.4719 -0.533711,0.4356 -3.009745,-2.119 -6.332018,-4.4463 -8.863685,-6.8939 l 0.603349,-6.4207 c 0.686827,-7.3089 0.639689,-7.077 2.975885,-14.6384 0.886252,-2.8685 1.611359,-5.258 1.611359,-5.3101 0,-0.1217 -0.967862,0.6426 -3.18972,2.5189 -0.977747,0.8257 -2.292619,1.8723 -2.921939,2.3259 -0.629319,0.4536 -1.519519,1.135 -1.978226,1.5144 -1.223413,1.0117 -1.678456,1.1473 -3.430412,1.0231 -2.36938,-0.1683 -3.497548,-0.8421 -4.64552,-2.7743 -1.182155,-1.9899 -1.10851,-2.7804 0.482002,-5.175 1.381863,-2.0802 2.70365,-3.3986 12.542411,-12.51 5.200853,-4.8165 9.461445,-8.79959 9.467982,-8.85146 0.0066,-0.0526 -0.307116,-0.2698 -0.697015,-0.48408 -1.171191,-0.64388 -2.813632,-1.9162 -3.919622,-3.03631 -3.487942,-3.53272 -5.212778,-7.71785 -5.212778,-12.64843 0,-3.12837 0.640025,-5.77163 2.014832,-8.32119 5.760157,-10.68223 19.941883,-12.91996 28.729906,-4.53332 1.264702,1.20697 2.883003,3.40295 3.709062,5.03306 1.852709,3.65619 2.267827,8.75942 1.050049,12.90894 -1.223552,4.16916 -3.771556,7.46194 -7.837357,10.12799 -1.644497,1.07835 -2.257319,1.56854 -2.212668,1.76992 0.06435,0.2903 4.303758,25.19388 5.328896,31.30368 0.673167,8.921 5.58945,14.1765 6.216176,23.3593 -0.159931,0.1511 -1.712836,0.2385 -5.749938,0.3238 -5.257412,0.1111 -5.546183,0.101 -5.841277,-0.1936 z m 50.374131,0 c -0.17074,-0.1708 -2.26057,-3.929 -4.64407,-8.3518 -2.383504,-4.4227 -4.378044,-8.043 -4.432346,-8.045 -0.10128,-0.011 -8.237107,14.6635 -8.621627,15.543 -0.147323,0.3369 -0.312669,0.4719 -0.533713,0.4356 -0.38379,-0.063 -8.176746,-5.9526 -8.176746,-6.1794 0,-0.087 -0.154551,-0.2835 -0.343471,-0.4364 l -0.343472,-0.2781 0.603352,-6.4207 c 0.686825,-7.3089 0.639686,-7.077 2.975883,-14.6384 0.886259,-2.8685 1.611362,-5.258 1.611362,-5.3101 0,-0.1217 -0.96969,0.6441 -3.189247,2.5189 -0.977498,0.8257 -2.433277,1.9891 -3.235065,2.5854 -2.820053,2.0973 -2.385258,1.9182 -4.655649,1.9182 -1.822858,0 -2.101029,-0.041 -2.931381,-0.4339 -1.707422,-0.8075 -2.636191,-2.2139 -2.788025,-4.2213 -0.09089,-1.2019 -0.07866,-1.2519 0.638765,-2.6088 0.869917,-1.6453 -0.07351,-0.713 12.521426,-12.3749 5.475341,-5.0697 9.96022,-9.26019 9.966407,-9.31206 0.0064,-0.0526 -0.307771,-0.2698 -0.697673,-0.48408 -1.171186,-0.64388 -2.813619,-1.9162 -3.919623,-3.03631 -3.487942,-3.53272 -5.212775,-7.71785 -5.212775,-12.64843 0,-3.12837 0.640019,-5.77163 2.014839,-8.32119 5.760149,-10.68223 19.941879,-12.91996 28.729899,-4.53332 1.97695,1.88665 3.68873,4.56655 4.54365,7.11329 1.43221,4.2665 1.18572,9.13998 -0.66599,13.16848 -1.58885,3.45656 -4.91134,6.9834 -8.03141,8.52536 -0.68041,0.33627 -1.23709,0.69392 -1.23706,0.79467 3e-5,0.10095 0.67582,4.04869 1.50178,8.77329 0.82595,4.7248 2.17412,12.552 2.99595,17.3942 l 1.49424,8.8038 2.5175,8.5436 c 1.38463,4.6989 2.70586,9.1365 2.93606,9.8613 0.34428,1.084 0.37967,1.3547 0.19945,1.5249 -0.15993,0.1511 -1.71285,0.2385 -5.74995,0.3238 -5.25741,0.1111 -5.54618,0.101 -5.84127,-0.1936 z m -43.255466,-27.356 c -1.031547,-0.1063 -1.288162,-0.2081 -1.557778,-0.6196 -0.167382,-0.2555 -1.031178,-4.8613 -2.355692,-12.5608 -1.150266,-6.6866 -2.087182,-12.22925 -2.082031,-12.31721 0.0053,-0.0881 0.298555,0.59082 0.652017,1.50821 0.353462,0.9175 1.279453,3.1317 2.057761,4.9207 0.778303,1.7888 2.179092,5.0541 3.112862,7.2558 0.933765,2.2019 2.077056,4.8939 2.54064,5.9823 0.784707,1.8425 0.835306,2.0441 0.733166,2.9191 -0.171342,1.4679 -0.407027,2.1541 -0.895264,2.6069 -0.453973,0.421 -0.718837,0.4575 -2.205681,0.3046 z m 45.289816,-18.4431 c -0.0384,-0.1147 -0.47384,-2.2454 -0.96766,-4.7348 l -0.89788,-4.52618 0.85152,-0.35303 c 0.46834,-0.19407 1.60633,-0.82196 2.52885,-1.39517 1.40861,-0.87538 2.9399,-1.53293 9.55824,-4.10429 l 7.88092,-3.06208 0.74464,0.28445 c 0.93794,0.35813 1.61853,0.92621 1.9521,1.62918 0.23258,0.49009 0.23485,0.80839 0.0218,3.04603 -0.13086,1.37436 -0.31484,2.7736 -0.40884,3.10944 -0.24798,0.88618 -1.97296,3.41839 -3.01896,4.43165 -1.95814,1.897 -1.78568,1.83 -10.17001,3.9558 -4.18084,1.0602 -7.69229,1.9273 -7.80322,1.9273 -0.11093,0 -0.2331,-0.093 -0.27147,-0.2083 z"
       id="path4195"
       inkscape:connector-curvature="0"
       sodipodi:nodetypes="cccccsssssscscscccssscsscccsccccccsscssscsscssscccssssscssscsccscccscscccccccccccccccscccscc" />
    <path
       style="fill:#363636;fill-opacity:1"
       d="m 498.98888,1052.6735 c -0.0605,-0.06 -0.11003,-8.6382 -0.11003,-19.0615 l 0,-18.9514 6.26549,0 c 6.02559,0 6.27203,-0.011 6.43632,-0.3192 0.094,-0.1755 0.17084,-0.4764 0.17084,-0.6686 0,-0.1921 0.48273,-2.1528 1.07272,-4.3571 0.59,-2.2042 1.07272,-4.1216 1.07272,-4.2609 0,-0.1618 -0.28308,-0.3311 -0.78391,-0.4689 -0.43115,-0.1186 -1.50452,-0.5739 -2.38528,-1.0117 -0.88074,-0.4378 -1.63192,-0.7959 -1.66928,-0.7959 -0.0373,0 -1.06198,-0.4747 -2.27693,-1.0549 -3.48197,-1.6628 -6.04649,-2.87232 -7.65514,-3.61071 -5.0575,-2.32153 -7.3651,-3.92266 -8.45033,-5.86323 -0.33815,-0.60467 -1.01275,-2.36342 -1.49912,-3.90834 -0.7428,-2.35949 -0.89921,-3.07664 -0.97755,-4.4821 l -0.0932,-1.67317 0.7363,-0.73631 c 0.40496,-0.40497 1.08715,-0.87029 1.51594,-1.03406 l 0.77966,-0.29774 3.91167,2.64807 c 2.15142,1.45642 4.94055,3.34306 6.19805,4.19252 1.25751,0.84947 3.07521,2.09168 4.03935,2.76046 0.96414,0.66879 1.84928,1.25294 1.96698,1.29811 0.1177,0.0452 -0.16046,-0.52164 -0.61813,-1.25955 -1.89364,-3.05317 -2.79986,-6.02798 -2.82528,-9.27445 -0.0666,-8.5069 5.85243,-15.52098 14.70723,-17.42802 1.5289,-0.32929 5.46682,-0.368 6.76638,-0.0666 3.09557,0.7181 5.08728,1.52028 7.05566,2.84176 4.06542,2.72931 6.67601,6.61168 7.64404,11.36788 0.4586,2.25321 0.22476,5.76791 -0.549,8.2517 -0.33221,1.06638 -1.2935,3.16914 -1.63927,3.58575 -0.43325,0.52205 0.10849,0.36853 1.0605,-0.30053 0.56847,-0.3995 2.35227,-1.61773 3.96403,-2.70719 1.61175,-1.08946 4.61366,-3.12253 6.67091,-4.51795 l 3.74044,-2.53712 0.98719,0.0895 c 1.23627,0.1121 1.66824,0.42696 2.38984,1.74198 l 0.56261,1.02529 -0.18615,1.52131 c -0.28134,2.29941 -0.65134,5.07185 -0.77566,5.81219 -0.24813,1.47761 -1.43391,3.13587 -2.65683,3.71548 -0.43459,0.20598 -1.45854,0.69004 -2.27547,1.07569 -0.81692,0.38565 -2.51452,1.19207 -3.77246,1.79204 -1.25795,0.59996 -2.30634,1.09092 -2.32977,1.09092 -0.0234,0 -1.18503,0.54651 -2.58132,1.21456 -1.39633,0.66807 -2.94721,1.40479 -3.44643,1.6371 -2.58199,1.20163 -5.09514,2.39693 -5.58632,2.65723 l -0.55276,0.2928 0.077,1.3487 c 0.11641,2.0411 0.71464,5.2173 1.45076,7.7026 0.36295,1.2253 0.73048,2.395 0.81674,2.5993 l 0.15683,0.3712 5.94477,0 5.94475,0 0,19.0616 0,19.0613 -24.14997,0 c -13.28248,0 -24.19947,-0.05 -24.25997,-0.11 z m 47.74981,-18.9513 0,-18.5664 -23.59985,0 -23.59985,0 0,18.5664 0,18.5662 23.59985,0 23.59985,0 0,-18.5662 z"
       id="path4186"
       inkscape:connector-curvature="0" />
    <path
       style="fill:#363636;fill-opacity:1"
       d="m 1177.2913,1052.2706 c -2.4002,-0.038 -3.1546,-0.1021 -3.3026,-0.2803 -0.1472,-0.1774 -0.096,-0.5345 0.2238,-1.5396 0.2286,-0.7198 1.5486,-5.1541 2.9335,-9.854 l 2.5181,-8.5454 1.4946,-8.8057 c 0.822,-4.8431 2.1705,-12.6722 2.9966,-17.3979 0.8262,-4.7257 1.502,-8.68213 1.5021,-8.79218 0,-0.11006 -0.5819,-0.50428 -1.293,-0.87604 -4.1721,-2.18104 -7.5402,-6.27544 -8.8591,-10.76934 -1.0066,-3.43012 -0.9271,-7.42718 0.2155,-10.83103 1.5125,-4.50591 5.1181,-8.50652 9.4848,-10.52404 3.8165,-1.76333 7.9673,-2.15562 12.1305,-1.14643 6.8204,1.65334 12.121,7.22618 13.4283,14.11797 0.3235,1.70494 0.3235,4.88503 0,6.58997 -0.496,2.61537 -1.6508,5.27554 -3.1683,7.2992 -1.5519,2.06944 -3.9248,4.15549 -5.8805,5.16978 -0.643,0.33346 -0.876,0.54936 -0.876,0.81191 0,0.36762 1.2432,4.22403 1.4626,4.53693 0.067,0.096 3.9514,3.0897 8.6311,6.6527 8.0116,6.0994 9.0927,6.9629 9.0927,7.2621 0,0.2071 -4.6823,7.911 -5.0499,8.3084 -0.1909,0.2065 -0.4286,0.3755 -0.5284,0.3755 -0.1,0 -1.6681,-1.284 -3.4854,-2.8532 -1.8172,-1.5693 -3.3393,-2.8179 -3.3825,-2.7748 -0.043,0.043 0.6496,2.4344 1.5393,5.3141 2.3433,7.5848 2.2951,7.3481 2.9823,14.6607 l 0.6035,6.422 -0.3436,0.2782 c -0.1889,0.1531 -0.3435,0.3494 -0.3435,0.4364 0,0.227 -7.7947,6.1177 -8.1785,6.1809 -0.2211,0.036 -0.3864,-0.099 -0.5338,-0.4357 -0.385,-0.8805 -8.5223,-15.5502 -8.6235,-15.5461 -0.054,0 -2.0839,3.686 -4.5103,8.1863 -2.4263,4.5003 -4.5423,8.2525 -4.7022,8.338 -0.1599,0.086 -1.3655,0.1385 -2.679,0.1178 -1.3137,-0.021 -3.7883,-0.06 -5.4992,-0.088 z m -42.4017,-0.6671 c -1.2784,-0.038 -1.8249,-0.1163 -1.8837,-0.2695 -0.045,-0.1186 0.8648,-3.4006 2.0229,-7.2933 l 2.1057,-7.0777 1.1522,-6.7569 c 0.6336,-3.7163 1.6027,-9.3847 2.1534,-12.5963 0.5507,-3.2116 1.0004,-6.0645 0.9994,-6.3398 0,-0.4478 -0.1288,-0.5708 -1.2073,-1.1679 -1.5684,-0.8683 -3.8366,-3.0982 -4.776,-4.6952 -1.4056,-2.3896 -1.9528,-4.6357 -1.8074,-7.4205 0.1074,-2.05998 0.4103,-3.27044 1.268,-5.06857 1.6396,-3.43736 4.9217,-6.09554 8.781,-7.11163 1.849,-0.48684 4.6576,-0.48684 6.5067,0 3.9545,1.0412 7.3001,3.83345 8.9483,7.46815 2.7064,5.96901 0.3629,13.39885 -5.2643,16.68985 -0.6004,0.3511 -1.0931,0.7351 -1.0949,0.8533 0,0.2756 3.0518,3.567 5.6091,6.0416 1.3429,1.2994 2.7125,2.4123 4.2433,3.4481 2.4983,1.6906 2.2714,1.655 2.9004,0.4553 0.2237,-0.4265 19.1665,-23.08892 19.2388,-23.01654 0.071,0.0714 -2.6119,15.76394 -2.7831,16.27684 -0.1083,0.3245 -8.717,12.8862 -9.1688,13.379 -0.058,0.063 -0.461,0.21 -0.8951,0.3256 l -0.7894,0.2104 -1.673,-1.1426 c -1.6717,-1.1417 -1.6735,-1.1424 -2.0467,-0.8262 -0.2056,0.174 -1.2469,1.1234 -2.3141,2.1099 -1.0673,0.9864 -2.0277,1.7935 -2.1343,1.7935 -0.1066,0 -1.4468,-1.1637 -2.9781,-2.586 -1.5314,-1.4223 -2.8341,-2.586 -2.8949,-2.586 -0.061,0 -0.1493,0.1008 -0.1966,0.224 -0.047,0.1232 0.8916,4.9451 2.0865,10.7155 1.5491,7.4807 2.1311,10.5972 2.0284,10.8599 -0.178,0.4554 -5.8459,4.7858 -6.1191,4.6752 -0.1088,-0.044 -1.092,-1.7207 -2.1848,-3.7259 -3.6106,-6.6249 -4.4812,-8.1127 -4.6078,-7.8751 -0.066,0.1239 -1.0572,1.952 -2.2027,4.0625 -1.1456,2.1105 -2.481,4.588 -2.9677,5.5057 -0.4866,0.9175 -1.028,1.8748 -1.2031,2.1271 l -0.318,0.4589 -2.3662,-0.035 c -1.3013,-0.02 -3.1764,-0.06 -4.167,-0.09 z m -6.2072,-19.4052 c -1.9773,-1.3682 -2.1816,-1.5575 -2.3133,-2.1427 -0.1229,-0.5462 -0.08,-0.7508 0.2872,-1.3719 0.2975,-0.5033 13.2639,-16.1779 14.026,-16.9555 0.023,-0.024 -0.4212,2.7171 -0.9865,6.0896 l -1.0279,6.1318 -3.1279,4.5046 c -1.7204,2.4776 -3.2539,4.6287 -3.4078,4.7803 -0.1539,0.1516 -0.5051,0.3181 -0.7804,0.3702 -0.43,0.081 -0.8059,-0.1169 -2.6694,-1.4064 z"
       id="path4199"
       inkscape:connector-curvature="0" />
  </g>
</svg>
