<svg version="1" xmlns="http://www.w3.org/2000/svg" width="341.333" height="341.333" viewBox="0 0 256.000000 256.000000"><path d="M4.6 51.5c-4.3 4.6-5.7 15.3-3 22 .7 1.7 11.5 22 31 58 2.3 4.4 11.9 22.1 21.1 39.2 9.3 17.2 17.9 32.4 19.1 33.8 2.1 2.4 2.7 2.5 12.1 2.5 12.2 0 12.8-.4 20-14 2.7-5.2 7.7-14.4 11-20.5l6-10.9-5.7-10.8c-3.1-5.9-6-10.8-6.3-10.8-.3 0-4.2 6.6-8.5 14.7-8.5 16-11.9 20.3-15.7 20.3-5.1 0-7.3-2.8-18.2-23.5-2.6-5-7.3-13.7-10.5-19.5-6.4-11.7-8.3-15.2-28.7-53C20.4 64.4 13 51.7 11.9 50.7c-2.9-2.3-4.6-2.2-7.3.8z"/><path d="M74.4 50.1c-1.2.6-6.8 9.8-13.8 22.7L48.9 94.5l5.5 10.5c3 5.7 5.9 10.6 6.3 10.7.5.2 2.5-3 4.6-6.9C77.5 85.2 80.5 81 85.1 81c4.5 0 7.4 3.6 16.5 20.5 4.7 8.8 10.4 19.4 12.6 23.5 4 7.3 10.7 19.7 23.3 43 3.4 6.3 7.9 14.6 10 18.5 7.8 14.4 9.8 17.7 11.9 19.1 1.6 1 5 1.3 12 1.2l9.7-.1 2.9-3.6c1.7-1.9 3-3.8 3-4.2 0-.3 4.5-8.9 10-19l10-18.4-2.6-5c-1.5-2.8-4.2-7.8-6.1-11.2l-3.4-6.2-3.6 6.7c-13.4 25.4-16.1 29.2-20.6 29.2-5.3 0-6.2-1.4-28-42-2.2-4.1-5.2-9.8-6.7-12.5-14.8-27.2-21-38.6-21-39.1 0-.2-1-2.1-2.3-4.2-1.3-2-4.7-8.2-7.6-13.7-7.3-14-8-14.5-19.4-14.4-5.1 0-10.1.5-11.3 1z"/><path d="M158.6 51.2c-2.3 2.2-5.5 7.6-17.6 30.3-2.9 5.5-5.8 10.7-6.3 11.5-.6 1.1.7 4.5 5 12.3 3.2 5.9 6.1 10.7 6.4 10.7.3 0 2.3-3.3 4.4-7.3 13.6-25.9 14.9-27.7 20-27.7 4 0 6.9 3.1 12.2 13 2.2 4.1 5.5 10.2 7.3 13.5 1.8 3.3 4.7 8.7 6.5 12 4.5 8.3 35.9 66.3 40.7 75.5 5.5 10.2 7.9 12.7 11.4 11.5 4.1-1.5 6.8-7.5 6.8-15.4.1-6.9-.2-7.7-9.2-24.2-22.4-41.4-30.2-55.7-33.8-62.4-4.5-8.4-6.6-12.4-20.3-37.7-5.7-10.5-9.3-16-10.8-16.7-1.3-.6-6.4-1.1-11.3-1.1-7.8 0-9.2.3-11.4 2.2zM243.3 51.2c-1.1 1.3-5.5 8.8-9.8 16.8-4.3 8-9.3 17.2-11.1 20.5l-3.3 6 5.6 10.5c5.7 10.9 7.3 13.3 7.3 11.2 0-.7 2-4.7 4.3-9 4.2-7.4 14.6-26.7 17.5-32.5 3.4-6.8 2.2-18-2.4-23-3-3.3-5.4-3.4-8.1-.5zM13.5 159.8c-6 11.3-11.6 22.1-12.3 24.1-2.8 7.7.8 20.6 6.3 22.6 2.5.9 3.1.7 5.2-2 1.3-1.7 4.1-6.2 6.2-10 2.1-3.9 5.9-11.1 8.6-16 2.7-5 5.8-10.8 7.1-13l2.2-4-5-9.5c-2.8-5.2-5.6-10.2-6.2-11.1-.9-1.3-3.1 2-12.1 18.9z"/></svg>