<?xml version="1.0" encoding="UTF-8" standalone="no"?>
<!-- Created with Inkscape (http://www.inkscape.org/) -->

<svg
   xmlns:dc="http://purl.org/dc/elements/1.1/"
   xmlns:cc="http://creativecommons.org/ns#"
   xmlns:rdf="http://www.w3.org/1999/02/22-rdf-syntax-ns#"
   xmlns:svg="http://www.w3.org/2000/svg"
   xmlns="http://www.w3.org/2000/svg"
   xmlns:sodipodi="http://sodipodi.sourceforge.net/DTD/sodipodi-0.dtd"
   xmlns:inkscape="http://www.inkscape.org/namespaces/inkscape"
   width="1280"
   height="320"
   viewBox="0 0 1280 320"
   id="svg4139"
   version="1.1"
   inkscape:version="0.91 r13725"
   sodipodi:docname="scenery-right.svg">
  <defs
     id="defs4141" />
  <sodipodi:namedview
     id="base"
     pagecolor="#ffffff"
     bordercolor="#666666"
     borderopacity="1.0"
     inkscape:pageopacity="0.0"
     inkscape:pageshadow="2"
     inkscape:zoom="0.98994949"
     inkscape:cx="387.70059"
     inkscape:cy="5.5488866"
     inkscape:document-units="px"
     inkscape:current-layer="layer1"
     showgrid="false"
     inkscape:snap-page="true"
     inkscape:snap-grids="false"
     inkscape:snap-bbox="true"
     inkscape:bbox-paths="false"
     inkscape:bbox-nodes="false"
     inkscape:snap-bbox-edge-midpoints="true"
     inkscape:snap-bbox-midpoints="false"
     units="px" />
  <metadata
     id="metadata4144">
    <rdf:RDF>
      <cc:Work
         rdf:about="">
        <dc:format>image/svg+xml</dc:format>
        <dc:type
           rdf:resource="http://purl.org/dc/dcmitype/StillImage" />
        <dc:title />
      </cc:Work>
    </rdf:RDF>
  </metadata>
  <g
     inkscape:label="レイヤー 1"
     inkscape:groupmode="layer"
     id="layer1"
     transform="translate(0,-732.36218)">
    <g
       id="g4735"
       transform="matrix(0.74620238,0,0,0.74620238,638.84228,266.50189)">
      <path
         sodipodi:nodetypes="cccc"
         inkscape:connector-curvature="0"
         id="rect5932"
         d="m 595.07234,1052.3622 0,-227.56554 54.26254,0 0,227.56554"
         style="opacity:1;fill:#e79e83;fill-opacity:1;fill-rule:evenodd;stroke:#363636;stroke-width:9.97642708;stroke-linecap:butt;stroke-linejoin:round;stroke-miterlimit:4;stroke-dasharray:none;stroke-opacity:1" />
      <ellipse
         ry="50.411884"
         rx="47.751335"
         cy="846.97473"
         cx="569.36224"
         id="path5934"
         style="opacity:1;fill:#79d979;fill-opacity:1;fill-rule:evenodd;stroke:#363636;stroke-width:9.97642708;stroke-linecap:round;stroke-linejoin:round;stroke-miterlimit:4;stroke-dasharray:none;stroke-opacity:1" />
      <ellipse
         ry="71.849174"
         rx="46.361034"
         cy="705.54974"
         cx="616.84192"
         id="path5938"
         style="opacity:1;fill:#7ad360;fill-opacity:1;fill-rule:evenodd;stroke:#363636;stroke-width:9.97642708;stroke-linecap:round;stroke-linejoin:round;stroke-miterlimit:4;stroke-dasharray:none;stroke-opacity:1" />
      <ellipse
         ry="53.998615"
         rx="56.200485"
         cy="746.69153"
         cx="676.91827"
         id="path5940"
         style="opacity:1;fill:#8dd163;fill-opacity:1;fill-rule:evenodd;stroke:#363636;stroke-width:9.97642708;stroke-linecap:round;stroke-linejoin:round;stroke-miterlimit:4;stroke-dasharray:none;stroke-opacity:1" />
      <ellipse
         ry="47.574883"
         rx="62.665016"
         cy="768.54816"
         cx="585.18878"
         id="path5936"
         style="opacity:1;fill:#6fd057;fill-opacity:1;fill-rule:evenodd;stroke:#363636;stroke-width:9.97642708;stroke-linecap:round;stroke-linejoin:round;stroke-miterlimit:4;stroke-dasharray:none;stroke-opacity:1" />
      <ellipse
         ry="84.854973"
         rx="75.579964"
         cy="828.97516"
         cx="654.9549"
         id="path5942"
         style="opacity:1;fill:#72d772;fill-opacity:1;fill-rule:evenodd;stroke:#363636;stroke-width:9.97642708;stroke-linecap:round;stroke-linejoin:round;stroke-miterlimit:4;stroke-dasharray:none;stroke-opacity:1" />
    </g>
    <g
       id="g4729"
       transform="matrix(0.74620238,0,0,0.74620238,719.32607,267.087)">
      <path
         sodipodi:nodetypes="cccc"
         inkscape:connector-curvature="0"
         id="rect5932-5"
         d="m 4.9960632,1052.3622 0,-227.95817 51.9984368,0 0,227.95817"
         style="opacity:1;fill:#e79e83;fill-opacity:1;fill-rule:evenodd;stroke:#363636;stroke-width:9.99212646;stroke-linecap:butt;stroke-linejoin:round;stroke-miterlimit:4;stroke-dasharray:none;stroke-opacity:1" />
      <path
         sodipodi:nodetypes="cccc"
         inkscape:connector-curvature="0"
         id="path5988"
         d="m 20.552418,728.9759 -75.455911,203.97328 172.869073,4.3628 z"
         style="fill:#61b569;fill-opacity:1;fill-rule:evenodd;stroke:#363636;stroke-width:9.99212646;stroke-linecap:round;stroke-linejoin:round;stroke-miterlimit:4;stroke-dasharray:none;stroke-opacity:1" />
      <path
         sodipodi:nodetypes="cccc"
         inkscape:connector-curvature="0"
         id="path5948-4"
         d="M 24.027483,685.36011 -55.848223,855.58046 113.19159,846.64118 Z"
         style="fill:#5eb25c;fill-opacity:1;fill-rule:evenodd;stroke:#363636;stroke-width:9.54014015;stroke-linecap:round;stroke-linejoin:round;stroke-miterlimit:4;stroke-dasharray:none;stroke-opacity:1" />
      <path
         sodipodi:nodetypes="cccc"
         inkscape:connector-curvature="0"
         id="path5948-4-6"
         d="M 30.383913,634.38673 -37.175241,759.95272 95.827851,773.85391 Z"
         style="fill:#5ec55b;fill-opacity:1;fill-rule:evenodd;stroke:#363636;stroke-width:9.99212646;stroke-linecap:round;stroke-linejoin:round;stroke-miterlimit:4;stroke-dasharray:none;stroke-opacity:1" />
    </g>
    <g
       id="g4759"
       transform="matrix(0.74620238,0,0,0.74620238,681.01227,267.08699)">
      <path
         sodipodi:nodetypes="ccccc"
         inkscape:connector-curvature="0"
         id="rect4144"
         d="m 239.06935,1052.3622 0,-373.13602 27.99495,-8.08448 0,22.78702 0,358.43348"
         style="opacity:1;fill:#f0c2b1;fill-opacity:1;fill-rule:nonzero;stroke:#393939;stroke-width:9.8263607;stroke-linecap:butt;stroke-linejoin:round;stroke-miterlimit:4;stroke-dasharray:none;stroke-opacity:1" />
      <path
         sodipodi:nodetypes="cccccc"
         inkscape:connector-curvature="0"
         id="rect4144-4"
         d="m 375.39264,1052.3622 0,-358.43314 -4.2e-4,-53.78696 27.99545,-8.08495 0,61.87191 -6e-5,358.43314"
         style="opacity:1;fill:#ebae98;fill-opacity:1;fill-rule:nonzero;stroke:#393939;stroke-width:9.8263607;stroke-linecap:butt;stroke-linejoin:round;stroke-miterlimit:4;stroke-dasharray:none;stroke-opacity:1" />
      <path
         inkscape:connector-curvature="0"
         id="path4144"
         d="m 306.82809,693.92872 0,-34.24672 27.99444,-7.96728 0,42.214 z"
         style="fill:#f0c2b1;fill-opacity:1;fill-rule:evenodd;stroke:#393939;stroke-width:9.8263607;stroke-linecap:butt;stroke-linejoin:round;stroke-miterlimit:4;stroke-dasharray:none;stroke-opacity:1" />
      <path
         sodipodi:nodetypes="cccc"
         inkscape:connector-curvature="0"
         id="path4182"
         d="m 306.82777,1052.3355 2.9e-4,-249.59874 27.99451,0 1.6e-4,249.59874"
         style="fill:#f0c2b1;fill-opacity:1;fill-rule:evenodd;stroke:#393939;stroke-width:9.8263607;stroke-linecap:butt;stroke-linejoin:round;stroke-miterlimit:4;stroke-dasharray:none;stroke-opacity:1" />
      <path
         inkscape:connector-curvature="0"
         id="rect4142"
         d="m 267.0643,693.92872 107.52203,0 0,108.80804 -107.52203,0 z"
         style="opacity:1;fill:#f0c2b1;fill-opacity:1;fill-rule:nonzero;stroke:#393939;stroke-width:9.75322056;stroke-linecap:round;stroke-linejoin:round;stroke-miterlimit:4;stroke-dasharray:none;stroke-opacity:1" />
      <ellipse
         ry="44.892597"
         rx="44.362003"
         cy="748.33276"
         cx="320.82532"
         id="path4196"
         style="opacity:1;fill:#fbf1ed;fill-opacity:1;fill-rule:nonzero;stroke:#393939;stroke-width:4.09740114;stroke-miterlimit:4;stroke-dasharray:none;stroke-opacity:1" />
    </g>
    <g
       id="g4211"
       transform="matrix(1.2503539,0,0,1.2503539,-55.557814,-263.46297)">
      <path
         sodipodi:nodetypes="cccc"
         inkscape:connector-curvature="0"
         id="rect7101"
         d="m 139.93201,1052.2133 0,-44.7722 330.59564,0 0,44.7722"
         style="opacity:1;fill:#6ddbfc;fill-opacity:1;fill-rule:evenodd;stroke:#363636;stroke-width:5.59651804;stroke-linecap:butt;stroke-linejoin:round;stroke-miterlimit:4;stroke-dasharray:none;stroke-opacity:1" />
      <path
         inkscape:connector-curvature="0"
         id="rect7105"
         d="m 216.22337,933.11882 254.30428,0 0,74.32228 -254.30428,0 z"
         style="opacity:1;fill:#f0fe86;fill-opacity:1;fill-rule:evenodd;stroke:#363636;stroke-width:5.59651804;stroke-linecap:round;stroke-linejoin:round;stroke-miterlimit:4;stroke-dasharray:none;stroke-opacity:1" />
      <path
         sodipodi:nodetypes="cscc"
         inkscape:connector-curvature="0"
         id="path7172-5"
         d="m 176.66487,1007.4411 c 0,10.2328 -8.22293,18.5283 -18.36643,18.5283 -10.1435,0 -18.36643,-8.2955 -18.36643,-18.5283 z"
         style="opacity:1;fill:#ed860b;fill-opacity:1;fill-rule:evenodd;stroke:#363636;stroke-width:5.59651804;stroke-linecap:round;stroke-linejoin:round;stroke-miterlimit:4;stroke-dasharray:none;stroke-opacity:1" />
      <path
         sodipodi:nodetypes="cscc"
         inkscape:connector-curvature="0"
         id="path7172-0"
         d="m 213.39772,1007.4411 c 0,10.2328 -8.22292,18.5283 -18.36643,18.5283 -10.1435,0 -18.36642,-8.2955 -18.36642,-18.5283 z"
         style="opacity:1;fill:#ed860b;fill-opacity:1;fill-rule:evenodd;stroke:#363636;stroke-width:5.59651804;stroke-linecap:round;stroke-linejoin:round;stroke-miterlimit:4;stroke-dasharray:none;stroke-opacity:1" />
      <path
         sodipodi:nodetypes="cscc"
         inkscape:connector-curvature="0"
         id="path7172-5-2"
         d="m 250.13058,1007.4411 c 0,10.2328 -8.22293,18.5283 -18.36643,18.5283 -10.1435,0 -18.36643,-8.2955 -18.36643,-18.5283 z"
         style="opacity:1;fill:#ed860b;fill-opacity:1;fill-rule:evenodd;stroke:#363636;stroke-width:5.59651804;stroke-linecap:round;stroke-linejoin:round;stroke-miterlimit:4;stroke-dasharray:none;stroke-opacity:1" />
      <path
         sodipodi:nodetypes="cscc"
         inkscape:connector-curvature="0"
         id="path7172-9"
         d="m 286.86344,1007.4411 c 0,10.2328 -8.22293,18.5283 -18.36643,18.5283 -10.1435,0 -18.36643,-8.2955 -18.36643,-18.5283 z"
         style="opacity:1;fill:#ed860b;fill-opacity:1;fill-rule:evenodd;stroke:#363636;stroke-width:5.59651804;stroke-linecap:round;stroke-linejoin:round;stroke-miterlimit:4;stroke-dasharray:none;stroke-opacity:1" />
      <path
         sodipodi:nodetypes="cscc"
         inkscape:connector-curvature="0"
         id="path7172-7"
         d="m 323.59629,1007.4411 c 0,10.2328 -8.22292,18.5283 -18.36643,18.5283 -10.1435,0 -18.36642,-8.2955 -18.36642,-18.5283 z"
         style="opacity:1;fill:#ed860b;fill-opacity:1;fill-rule:evenodd;stroke:#363636;stroke-width:5.59651804;stroke-linecap:round;stroke-linejoin:round;stroke-miterlimit:4;stroke-dasharray:none;stroke-opacity:1" />
      <path
         sodipodi:nodetypes="cscc"
         inkscape:connector-curvature="0"
         id="path7172-5-25"
         d="m 360.32915,1007.4411 c 0,10.2328 -8.22293,18.5283 -18.36643,18.5283 -10.1435,0 -18.36643,-8.2955 -18.36643,-18.5283 z"
         style="opacity:1;fill:#ed860b;fill-opacity:1;fill-rule:evenodd;stroke:#363636;stroke-width:5.59651804;stroke-linecap:round;stroke-linejoin:round;stroke-miterlimit:4;stroke-dasharray:none;stroke-opacity:1" />
      <path
         sodipodi:nodetypes="cscc"
         inkscape:connector-curvature="0"
         id="path7172-0-8"
         d="m 397.06201,1007.4411 c 0,10.2328 -8.223,18.5283 -18.36643,18.5283 -10.1435,0 -18.36643,-8.2955 -18.36643,-18.5283 z"
         style="opacity:1;fill:#ed860b;fill-opacity:1;fill-rule:evenodd;stroke:#363636;stroke-width:5.59651804;stroke-linecap:round;stroke-linejoin:round;stroke-miterlimit:4;stroke-dasharray:none;stroke-opacity:1" />
      <path
         sodipodi:nodetypes="cscc"
         inkscape:connector-curvature="0"
         id="path7172-5-2-5"
         d="m 433.79479,1007.4411 c 0,10.2328 -8.22293,18.5283 -18.36643,18.5283 -10.14343,0 -18.36635,-8.2955 -18.36635,-18.5283 z"
         style="opacity:1;fill:#ed860b;fill-opacity:1;fill-rule:evenodd;stroke:#363636;stroke-width:5.59651804;stroke-linecap:round;stroke-linejoin:round;stroke-miterlimit:4;stroke-dasharray:none;stroke-opacity:1" />
      <path
         sodipodi:nodetypes="cscc"
         inkscape:connector-curvature="0"
         id="path7172-9-3"
         d="m 470.52765,1007.4411 c 0,10.2328 -8.22293,18.5283 -18.36643,18.5283 -10.1435,0 -18.36643,-8.2955 -18.36643,-18.5283 z"
         style="opacity:1;fill:#ed860b;fill-opacity:1;fill-rule:evenodd;stroke:#363636;stroke-width:5.59651804;stroke-linecap:round;stroke-linejoin:round;stroke-miterlimit:4;stroke-dasharray:none;stroke-opacity:1" />
      <path
         sodipodi:nodetypes="cccccc"
         inkscape:connector-curvature="0"
         d="m 470.52765,933.11882 -254.30428,0 0,74.32228 c 101.72171,-19.81931 127.15214,-74.32228 127.15214,-74.32228 0,0 25.43042,56.58692 127.15214,74.32228 z"
         style="fill:#ff8383;fill-opacity:1;fill-rule:evenodd;stroke:#363636;stroke-width:5.59651804;stroke-linecap:round;stroke-linejoin:round;stroke-miterlimit:4;stroke-dasharray:none;stroke-opacity:1"
         id="path7319" />
      <rect
         y="968.30133"
         x="99.178772"
         height="44.772144"
         width="29.848095"
         id="rect4146"
         style="opacity:1;fill:#ededed;fill-opacity:1;fill-rule:evenodd;stroke:#363636;stroke-width:5.59651804;stroke-linecap:butt;stroke-linejoin:round;stroke-miterlimit:4;stroke-dasharray:none;stroke-opacity:1" />
      <path
         inkscape:connector-curvature="0"
         id="path4148"
         d="m 114.10288,1013.0735 0,22.386 -14.924043,14.924"
         style="fill:none;fill-rule:evenodd;stroke:#363636;stroke-width:5.59651804;stroke-linecap:butt;stroke-linejoin:round;stroke-miterlimit:4;stroke-dasharray:none;stroke-opacity:1" />
      <path
         inkscape:connector-curvature="0"
         id="path4150"
         d="m 114.10288,1035.4595 14.92405,14.924"
         style="fill:none;fill-rule:evenodd;stroke:#363636;stroke-width:5.59651804;stroke-linecap:butt;stroke-linejoin:round;stroke-miterlimit:4;stroke-dasharray:none;stroke-opacity:1" />
      <circle
         r="7.4620237"
         cy="983.2254"
         cx="114.10282"
         id="path4173"
         style="opacity:1;fill:none;fill-opacity:1;fill-rule:evenodd;stroke:#363636;stroke-width:5.59651804;stroke-linecap:butt;stroke-linejoin:round;stroke-miterlimit:4;stroke-dasharray:none;stroke-opacity:1" />
      <circle
         r="3.7310095"
         cy="1001.7872"
         cx="114.10282"
         id="path4173-3"
         style="opacity:1;fill:none;fill-opacity:1;fill-rule:evenodd;stroke:#363636;stroke-width:2.79825711;stroke-linecap:butt;stroke-linejoin:round;stroke-miterlimit:4;stroke-dasharray:none;stroke-opacity:1" />
      <rect
         y="968.30133"
         x="483.69943"
         height="44.772144"
         width="29.848095"
         id="rect4146-8"
         style="opacity:1;fill:#ededed;fill-opacity:1;fill-rule:evenodd;stroke:#363636;stroke-width:5.59651804;stroke-linecap:butt;stroke-linejoin:round;stroke-miterlimit:4;stroke-dasharray:none;stroke-opacity:1" />
      <path
         inkscape:connector-curvature="0"
         id="path4148-2"
         d="m 498.62343,1013.0736 0,22.3859 -14.92404,14.924"
         style="fill:none;fill-rule:evenodd;stroke:#363636;stroke-width:5.59651804;stroke-linecap:butt;stroke-linejoin:round;stroke-miterlimit:4;stroke-dasharray:none;stroke-opacity:1" />
      <path
         inkscape:connector-curvature="0"
         id="path4150-2"
         d="m 498.62343,1035.4595 14.92405,14.924"
         style="fill:none;fill-rule:evenodd;stroke:#363636;stroke-width:5.59651804;stroke-linecap:butt;stroke-linejoin:round;stroke-miterlimit:4;stroke-dasharray:none;stroke-opacity:1" />
      <circle
         r="7.4620237"
         cy="983.2254"
         cx="498.6235"
         id="path4173-1"
         style="opacity:1;fill:none;fill-opacity:1;fill-rule:evenodd;stroke:#363636;stroke-width:5.59651804;stroke-linecap:butt;stroke-linejoin:round;stroke-miterlimit:4;stroke-dasharray:none;stroke-opacity:1" />
      <circle
         r="3.7310095"
         cy="1001.7871"
         cx="498.6235"
         id="path4173-3-4"
         style="opacity:1;fill:none;fill-opacity:1;fill-rule:evenodd;stroke:#363636;stroke-width:2.79825711;stroke-linecap:butt;stroke-linejoin:round;stroke-miterlimit:4;stroke-dasharray:none;stroke-opacity:1" />
    </g>
    <path
       style="fill:#363636;fill-opacity:1"
       d="m 353.51758,993.4173 c -0.72065,-0.5543 -1.49619,-1.8407 -6.10793,-10.13127 -2.90535,-5.22298 -5.35989,-9.56369 -5.45452,-9.64619 -0.15041,-0.13106 -4.82335,0.0672 -4.9382,0.20915 -0.0241,0.0301 -1.4891,4.23573 -3.25546,9.34642 l -3.2116,9.29199 -0.96217,0.5981 -0.96217,0.5981 -3.90116,-0.1392 c -3.58815,-0.1282 -3.95537,-0.1738 -4.57702,-0.569 -0.86129,-0.5475 -1.26106,-1.0157 -1.41248,-1.6542 -0.19574,-0.8254 2.63361,-22.79959 3.50719,-27.2388 2.54692,-12.94242 2.67144,-13.73905 2.86772,-18.34882 0.1015,-2.38293 0.30836,-5.04221 0.45977,-5.90964 0.15142,-0.86731 0.21432,-1.63218 0.13978,-1.69985 -0.0745,-0.0672 -3.69681,-0.35133 -8.04947,-0.63058 -12.87697,-0.82606 -14.95423,-0.98933 -15.3532,-1.20612 -0.20864,-0.11356 -0.67711,-0.51564 -1.04104,-0.89396 l -0.66169,-0.68771 0.49617,-12.58195 0.49616,-12.58194 0.67031,-0.81807 c 0.36867,-0.44993 1.00095,-1.04053 1.40506,-1.3126 0.72403,-0.48737 0.7992,-0.49617 5.15108,-0.60475 l 4.41634,-0.11007 0.51128,0.67032 c 0.99395,1.30322 1.19994,2.74063 1.60599,11.20723 0.20553,4.2851 0.4104,7.82791 0.45529,7.87287 0.0448,0.0452 0.45767,0 0.91726,-0.11124 1.12375,-0.25909 4.86975,-0.25306 6.09562,0.0116 0.54344,0.11657 1.59888,0.4577 2.34543,0.75804 l 1.35737,0.54623 -0.66744,-0.50637 c -1.1815,-0.89628 -3.88814,-3.742 -4.63841,-4.87663 -2.41769,-3.65648 -3.54308,-7.29362 -3.5535,-11.48428 -0.008,-3.46402 0.58836,-6.06328 2.0862,-9.08374 2.09348,-4.22148 5.77061,-7.78933 10.00821,-9.71073 10.77812,-4.88706 23.59695,0.20382 28.05632,11.14234 1.36359,3.34479 1.77782,7.51366 1.12089,11.28081 -0.59161,3.39253 -2.52673,7.32433 -4.85433,9.8631 -0.64907,0.70798 -1.13728,1.28723 -1.0849,1.28723 0.0524,0 0.93958,-0.23499 1.97155,-0.52224 1.6326,-0.45457 2.21067,-0.52119 4.45071,-0.51297 1.7638,0.0116 2.99022,0.1124 3.89495,0.33662 0.96387,0.23881 1.3567,0.26871 1.45437,0.11008 0.0736,-0.11912 0.93212,-4.21199 1.9078,-9.09545 l 1.77397,-8.87888 0.79271,-0.82733 c 0.66548,-0.69454 0.88191,-0.81192 1.3484,-0.73174 0.57068,0.0985 6.43731,0.67021 6.87339,0.67021 0.13367,0 0.50956,0.38736 0.83532,0.86082 0.44488,0.64669 0.65451,1.25177 0.8424,2.43148 0.23258,1.46034 0.1844,2.39115 -0.68708,13.27347 l -0.9372,11.70282 -0.88403,1.02397 c -0.6154,0.71285 -1.06186,1.05259 -1.46929,1.11794 -0.3219,0.0521 -4.53271,0.39814 -9.35734,0.76986 -4.82465,0.37172 -9.27731,0.72896 -9.89481,0.79385 l -1.12272,0.11819 0.12564,1.83172 c 0.0691,1.0074 0.38541,4.57767 0.7029,7.93393 0.52194,5.51752 0.67728,6.55007 1.62094,10.77445 1.18338,5.29748 1.78301,7.60891 2.2303,8.59707 0.17006,0.37578 1.22391,5.78206 2.34189,12.01394 1.65346,9.21688 2.01502,11.55727 1.93794,12.54487 -0.14909,1.9103 -0.0429,1.8681 -5.10628,2.0223 l -4.30372,0.1311 -0.82546,-0.6349 z m -74.4972,0.123 c -1.27138,-0.132 -2.48706,-0.2957 -2.7015,-0.3637 -0.74429,-0.2363 -0.80316,-0.9574 -0.80316,-9.83727 l 0,-8.52802 -0.71512,-0.11819 c -0.39331,-0.0649 -1.89505,-0.11912 -3.3372,-0.12028 -2.34844,0 -2.62208,0.0325 -2.62208,0.32433 0,0.17949 0.4378,3.76217 0.9729,7.96163 l 0.9729,7.6352 -0.33983,1.0111 c -0.1869,0.5562 -0.402,1.0496 -0.47798,1.0965 -0.076,0.048 -2.05569,0.2129 -4.39934,0.3687 l -4.26121,0.2833 -0.84945,-0.9316 c -0.81886,-0.898 -0.95283,-1.2362 -3.71861,-9.38904 l -2.86914,-8.45756 -4.95567,-0.095 c -4.60763,-0.0881 -4.96038,-0.11981 -5.0227,-0.44414 -0.0368,-0.19177 -0.0162,-0.55098 0.0458,-0.79813 0.062,-0.24716 3.07498,-4.25208 6.69544,-8.89997 6.13094,-7.87079 6.60948,-8.5403 6.97343,-9.75616 0.21492,-0.71806 0.36175,-1.3345 0.3263,-1.36996 -0.0355,-0.0359 -1.56143,1.99348 -3.39104,4.50873 -2.90429,3.99263 -3.44853,4.64175 -4.28741,5.11347 -1.30865,0.73603 -2.01675,0.9198 -3.94401,1.02397 l -1.64828,0.0892 -1.74627,-1.13312 c -0.97595,-0.63324 -1.90612,-1.39592 -2.10865,-1.72894 -0.49696,-0.81725 -0.66156,-2.35187 -0.34686,-3.23401 0.17218,-0.48261 3.65994,-4.45925 11.02625,-12.57163 12.94043,-14.25122 13.3428,-14.70196 13.34618,-14.95086 10e-4,-0.10776 -0.55265,-0.43788 -1.23133,-0.73347 -3.12761,-1.36255 -6.63715,-4.33203 -8.59162,-7.26941 -2.38287,-3.58117 -3.52323,-7.37751 -3.52323,-11.72912 0,-6.73836 3.0409,-12.7809 8.46475,-16.81988 4.49805,-3.34966 10.56412,-4.66122 16.13665,-3.48905 7.55708,1.58966 13.54565,7.38435 15.67059,15.16336 0.38833,1.42153 0.44167,2.04539 0.43996,5.14557 -0.002,3.97155 -0.25045,5.29088 -1.5783,8.38758 -1.42414,3.32115 -4.37191,6.93465 -7.15201,8.76718 -0.77394,0.51019 -1.25199,0.94853 -1.19537,1.09604 0.0519,0.13522 5.52484,6.17846 12.16214,13.42956 11.99287,13.10186 12.0687,13.18981 12.21227,14.15978 l 0.14449,0.97612 -1.76541,2.7076 c -1.7633,2.70424 -1.76651,2.70772 -2.68062,2.90806 -0.50335,0.11008 -1.3291,0.20058 -1.83501,0.20058 -1.11097,0 -0.47188,0.65746 -7.82549,-8.05062 -2.98478,-3.53459 -5.44911,-6.4043 -5.47628,-6.37718 -0.099,0.0996 1.86699,6.32817 2.1151,6.70151 0.14052,0.21147 2.90474,3.49496 6.1427,7.29663 3.23797,3.80168 6.08479,7.16744 6.32627,7.47948 0.77005,0.99489 2.51675,3.62996 2.51675,3.79681 0,0.39559 -4.32249,0.87531 -7.95694,0.88307 -2.12814,0 -3.73635,0.0858 -3.83336,0.19374 -0.0919,0.10197 -1.82545,4.0734 -3.85229,8.82477 l -3.68516,8.63874 -1.42342,0.6577 c -0.7829,0.3617 -1.60444,0.6463 -1.82565,0.6322 -0.22122,-0.014 -1.44243,-0.1334 -2.71383,-0.2654 z m 5.55101,-86.6632 c 0.30731,-0.49721 2.13781,-6.98459 2.00945,-7.12155 -0.081,-0.0869 -0.94619,0.17103 -1.92257,0.57206 l -1.77523,0.72931 -0.47865,1.86416 -0.47865,1.86428 1.12739,1.13926 c 1.15973,1.17194 1.32037,1.27275 1.51826,0.95248 z m -2.49704,-4.06378 c 0.48641,-1.61075 0.52649,-1.90252 0.29211,-2.12615 -0.38634,-0.3686 -3.62397,-1.31238 -3.82218,-1.11412 -0.21976,0.21969 -1.12159,3.25417 -1.12159,3.77386 0,0.3482 0.24116,0.48667 1.57325,0.903 2.42974,0.75943 2.41284,0.76743 3.07841,-1.43659 z m -6.58112,1.03486 1.40775,-0.33928 0.44812,-1.51202 c 0.24646,-0.83162 0.49321,-1.68364 0.54833,-1.89348 0.11518,-0.43812 -2.08835,-3.40319 -2.44159,-3.28546 -0.22876,0.0765 -2.05204,7.11691 -1.88602,7.28296 0.15044,0.1504 0.36995,0.12166 1.92341,-0.25272 z"
       id="path4186"
       inkscape:connector-curvature="0" />
    <path
       style="opacity:1;fill:#f8f8f8;fill-opacity:1;fill-rule:evenodd;stroke:none;stroke-width:1.89403605;stroke-linecap:butt;stroke-linejoin:round;stroke-miterlimit:4;stroke-dasharray:none;stroke-opacity:1"
       d="m 273.68488,903.72187 c 0.0782,-0.26198 0.21487,-0.81726 0.30369,-1.23394 0.43323,-2.03246 1.4706,-5.42957 1.65803,-5.42957 0.33346,0 1.99254,2.59326 1.99254,3.11448 0,0.25827 -0.17783,1.0813 -0.39518,1.82895 -0.42295,1.45493 -0.30605,1.37559 -2.97888,2.02176 -0.62727,0.15165 -0.70368,0.11191 -0.5802,-0.30168 z"
       id="path4188"
       inkscape:connector-curvature="0" />
    <path
       style="opacity:1;fill:#f8f8f8;fill-opacity:1;fill-rule:evenodd;stroke:none;stroke-width:1.89403605;stroke-linecap:butt;stroke-linejoin:round;stroke-miterlimit:4;stroke-dasharray:none;stroke-opacity:1"
       d="m 279.28064,904.21381 c -0.69448,-0.21203 -1.29883,-0.42019 -1.34301,-0.46257 -0.0442,-0.0424 0.0979,-0.67712 0.31568,-1.41051 0.21779,-0.73339 0.39599,-1.65374 0.39599,-2.04521 0,-0.39148 0.0448,-0.71178 0.0997,-0.71178 0.41734,0 3.44572,1.07432 3.56291,1.26394 0.15995,0.25881 -0.41482,2.40386 -0.87404,3.2619 -0.32719,0.61137 -0.47305,0.61841 -2.15719,0.10423 z"
       id="path4190"
       inkscape:connector-curvature="0" />
    <path
       style="opacity:1;fill:#f8f8f8;fill-opacity:1;fill-rule:evenodd;stroke:none;stroke-width:1.89403605;stroke-linecap:butt;stroke-linejoin:round;stroke-miterlimit:4;stroke-dasharray:none;stroke-opacity:1"
       d="m 283.26417,905.83301 c -0.9712,-0.99741 -1.02119,-1.1163 -0.71628,-1.70359 0.18028,-0.34724 0.46476,-1.21537 0.63218,-1.92919 0.29599,-1.26197 0.34291,-1.31258 1.69736,-1.8309 1.68165,-0.64353 1.66465,-0.64251 1.51317,-0.0911 -1.31683,4.79314 -1.7574,6.28239 -1.90476,6.43867 -0.0977,0.1036 -0.64743,-0.29415 -1.22167,-0.88388 z"
       id="path4192"
       inkscape:connector-curvature="0" />
  </g>
</svg>
