<svg id="レイヤー_1" data-name="レイヤー 1" xmlns="http://www.w3.org/2000/svg" viewBox="0 0 1513.86 238"><defs><style>.cls-1{fill:#f44336;}.cls-2{fill:#4caf50;}.cls-3{fill:#2196f3;}</style></defs><title>アートボード 1</title><path id="path-lb" class="cls-1" d="M55.31,169.37,22.16,230.71s-9.1,16.67-18.1,0c0,0-9-16.71,0-33.53l33.1-61.34Z"/><path id="path-ct" class="cls-2" d="M311.56,169.37,278.5,230.52c-3.95,7.1-9.1,7.1-9.1,7.1H243.78c-5.19,0-9.15-7.1-9.15-7.1L141.23,57.58c-5.19-9.76-12.81-9.81-12.81-9.81-7.53,0-12.81,9.62-12.81,9.62L91.55,102.21,73.46,68.68l33.1-61.21c3.9-7.14,9.1-7.14,9.1-7.14h25.62c5.19,0,9.1,7.09,9.1,7.09l93.4,173c5.19,9.77,12.81,9.77,12.81,9.77,7.58,0,12.81-9.81,12.81-9.81l24.06-44.63Z"/><path id="path-rt" class="cls-3" d="M347.85,102.21l34.2-63.49C390,24,381.1,7.47,381.1,7.47c-9.1-16.81-18.25,0-18.25,0l-33.1,61.21Z"/><path id="path-lt" class="cls-1" d="M183.38,169.32l-33.1,61.3c-3.9,7.1-9.1,7.1-9.1,7.1H115.56c-5.19,0-9.1-7.05-9.1-7.05L4.11,41.05C-5,24,3.87,7.62,3.87,7.62c9.19-17,18.38,0,18.38,0l93.36,173c5.24,9.62,12.81,9.62,12.81,9.62,7.57,0,12.81-9.81,12.81-9.81l24.06-44.73Z"/><path id="path-rb" class="cls-3" d="M219.68,102.16l24-44.58s5.24-9.81,12.81-9.81c0,0,7.58,0,12.82,9.57L363,230.57s8.91,16.72,18.24,0c0,0,8.72-16.81,0-33L278.55,7.42S274.6.33,269.4.28H243.78s-5.19,0-9.1,7.14L201.53,68.58Z"/><g id="レイヤー_2" data-name="レイヤー 2"><g id="レイヤー_1-2" data-name="レイヤー 1-2"><path d="M432.43,160.41l11.19-6.72q11.83,21.78,27.34,21.78a26.36,26.36,0,0,0,12.45-3.06,22,22,0,0,0,8.86-8.29,21.41,21.41,0,0,0,3.06-11,22.31,22.31,0,0,0-4.49-13q-6.12-8.76-22.57-21.13t-20.55-18a32.94,32.94,0,0,1-7-20.16,30.74,30.74,0,0,1,4.12-15.61A29.41,29.41,0,0,1,456.48,54a33.39,33.39,0,0,1,16.27-4.14,34.72,34.72,0,0,1,17.41,4.58q8.13,4.59,17.19,17l-10.7,8.15c-5-6.56-9.18-10.91-12.68-13a21.77,21.77,0,0,0-11.42-3.13,18.1,18.1,0,0,0-13,4.83,15.88,15.88,0,0,0-5.06,11.91,20.29,20.29,0,0,0,1.79,8.33,30.62,30.62,0,0,0,6.53,8.78q2.61,2.52,17,13.18,17.12,12.65,23.47,22.49a36.17,36.17,0,0,1,6.36,19.78,33.62,33.62,0,0,1-10.88,24.91,36.65,36.65,0,0,1-26.58,10.58,38.81,38.81,0,0,1-21.77-6.41Q440.68,175.48,432.43,160.41Z"/><path d="M537.24,53.19h13.18v55.27H617.5V53.19h13.18V185H617.5v-63.6H550.42V185H537.24Z"/><path d="M660.86,53.19H674V185H660.82Z"/><path d="M704.22,53.19h13.44v49.44l52.66-49.44H788l-63.29,59.12L792.94,185H775.42l-57.76-61.38V185H704.22Z"/><path d="M875.38,49.87q29.93,0,50.1,20T945.65,119a66.84,66.84,0,0,1-20.12,49.09,66.72,66.72,0,0,1-49.08,20.17q-29.31,0-49.47-20.08a65.9,65.9,0,0,1-20.18-48.55A70.25,70.25,0,0,1,816,84.48,67.92,67.92,0,0,1,875.38,49.87ZM876,62.68a54.36,54.36,0,0,0-27.73,7.64,55,55,0,0,0-20.46,20.54,57.11,57.11,0,0,0-7.35,28.79A55.38,55.38,0,0,0,876,175.47,56.27,56.27,0,0,0,904.35,168a53,53,0,0,0,20.38-20.3A57.15,57.15,0,0,0,932.06,119a55.75,55.75,0,0,0-7.33-28.43,54.52,54.52,0,0,0-20.57-20.32A55.88,55.88,0,0,0,876,62.68Z"/><path d="M958.46,160.41l11.21-6.72q11.82,21.78,27.32,21.78a26.29,26.29,0,0,0,12.44-3.06,21.8,21.8,0,0,0,8.87-8.29,21.41,21.41,0,0,0,3.06-11,22.37,22.37,0,0,0-4.48-13q-6.12-8.76-22.58-21.13t-20.52-18a33,33,0,0,1-7-20.16,30.65,30.65,0,0,1,4.13-15.61A29.25,29.25,0,0,1,982.51,54a33.39,33.39,0,0,1,16.27-4.14,34.82,34.82,0,0,1,17.43,4.58q8.1,4.59,17.15,17l-10.7,8.14c-5-6.55-9.17-10.9-12.69-13a21.77,21.77,0,0,0-11.42-3.13,18.1,18.1,0,0,0-13,4.83,15.85,15.85,0,0,0-5.06,11.91,20.29,20.29,0,0,0,1.79,8.33,30.69,30.69,0,0,0,6.55,8.78q2.58,2.52,17,13.18,17.12,12.65,23.47,22.49a36.17,36.17,0,0,1,6.36,19.78,33.59,33.59,0,0,1-10.89,24.91,36.54,36.54,0,0,1-26.46,10.58,38.81,38.81,0,0,1-21.77-6.41Q966.7,175.48,958.46,160.41Z"/><path d="M1117.37,53.19,1178.82,185H1164.6l-20.79-43.36H1087L1066.51,185h-14.69l62.25-131.77Zm-1.66,28-22.58,47.7h45Z"/><path d="M1197.29,53.19h13.18V185h-13.18Z"/><path d="M1223.54,198.75h93.89v9.17h-93.89Z"/><path d="M1340.59,83.73h-13.44q3.69-16.29,14.07-25.09a36.83,36.83,0,0,1,24.58-8.77A40.6,40.6,0,0,1,1385,54.58a34.76,34.76,0,0,1,13.76,12.67,31.44,31.44,0,0,1,4.88,16.67q0,17-16.93,27a38.21,38.21,0,0,1,15.58,11.3,36.05,36.05,0,0,1,8.61,23.47A41.78,41.78,0,0,1,1405,167a40.93,40.93,0,0,1-16.11,15.72,46.9,46.9,0,0,1-22.93,5.56q-17,0-28.39-9.81t-14.88-28.81h12.9q3.44,12.84,9.77,18.55,8.13,7.26,20.78,7.26,14.34,0,23-8.61a27.54,27.54,0,0,0,8.68-20.15,25.92,25.92,0,0,0-4.34-14.41,27.15,27.15,0,0,0-11.65-10.12q-7.29-3.43-22.62-4.22V105.86a41.61,41.61,0,0,0,16.49-3.18,24.1,24.1,0,0,0,10.79-8.11,18.59,18.59,0,0,0,3.36-10.7A19.55,19.55,0,0,0,1383,69a24.69,24.69,0,0,0-17.33-6.26,23.27,23.27,0,0,0-14.7,4.78Q1344.93,72.27,1340.59,83.73Z"/><path d="M1423.86,119.11q0-26,5.59-40.3t15.81-21.6a38.18,38.18,0,0,1,22.84-7.34,39.09,39.09,0,0,1,23.21,7.38q10.38,7.43,16.44,22.19t6.11,39.75q0,24.81-6,39.5t-16.44,22.17a39.06,39.06,0,0,1-23.3,7.49,38,38,0,0,1-22.75-7.26q-10.17-7.38-15.87-21.71T1423.86,119.11Zm12.44.23q0,22.32,4,33.76a36.08,36.08,0,0,0,11.77,17.34,26,26,0,0,0,32.89.13q7.65-5.77,11.56-17.33,4.9-14.09,4.92-33.9T1497,86.74q-4.39-12.67-12.14-18.54a25.84,25.84,0,0,0-32.84,0q-7.63,5.86-11.72,17.29t-4,33.85Z"/></g></g></svg>