<svg xmlns="http://www.w3.org/2000/svg" viewBox="0 0 707.29 103.36"><defs><style>.cls-1{fill:none;stroke:#000;stroke-miterlimit:10;stroke-width:6px;}</style></defs><title>shikosai30_a</title><g id="レイヤー_2" data-name="レイヤー 2"><g id="レイヤー_1-2" data-name="レイヤー 1"><path d="M0,72.3l7.32-4.39Q15.06,82.15,25.2,82.15a17.22,17.22,0,0,0,8.14-2,14.36,14.36,0,0,0,5.8-5.42,14,14,0,0,0,2-7.21A14.59,14.59,0,0,0,38.2,59q-4-5.73-14.76-13.82T10,33.4A21.52,21.52,0,0,1,5.45,20.21,20.07,20.07,0,0,1,8.14,10a19.24,19.24,0,0,1,7.59-7.29A21.85,21.85,0,0,1,26.37,0,22.66,22.66,0,0,1,37.76,3Q43.07,6,49,14.12l-7,5.33Q37.09,13,33.66,11a14.23,14.23,0,0,0-7.47-2.05,11.8,11.8,0,0,0-8.52,3.16,10.35,10.35,0,0,0-3.31,7.79,13.29,13.29,0,0,0,1.17,5.45,19.87,19.87,0,0,0,4.27,5.74q1.71,1.65,11.14,8.62,11.19,8.27,15.35,14.71a23.7,23.7,0,0,1,4.16,12.94,22,22,0,0,1-7.12,16.29A23.94,23.94,0,0,1,26,90.53a25.4,25.4,0,0,1-14.24-4.19Q5.39,82.16,0,72.3Z"/><path d="M68.55,2.17h8.62V38.32h43.88V2.17h8.62V88.36h-8.62V46.76H77.17v41.6H68.55Z"/><path d="M149.41,2.17H158V88.36h-8.62Z"/><path d="M177.77,2.17h8.79V34.51L221,2.17h11.58l-41.4,38.67,44.62,47.52H224.34L186.56,48.21V88.36h-8.79Z"/><path d="M289.72,0q19.57,0,32.77,13.07t13.19,32.16a43.75,43.75,0,0,1-13.16,32.11,43.66,43.66,0,0,1-32.1,13.19q-19.17,0-32.37-13.13a43.16,43.16,0,0,1-13.19-31.76,46,46,0,0,1,6-23A44.42,44.42,0,0,1,289.72,0Zm.38,8.38a35.54,35.54,0,0,0-18.14,5,35.93,35.93,0,0,0-13.38,13.43,37.34,37.34,0,0,0-4.81,18.83,35.15,35.15,0,0,0,10.65,25.94A35.1,35.1,0,0,0,290.1,82.15a36.8,36.8,0,0,0,18.57-4.87A34.83,34.83,0,0,0,322,64a37.38,37.38,0,0,0,4.79-18.76A36.45,36.45,0,0,0,322,26.65a35.79,35.79,0,0,0-13.46-13.29A36.52,36.52,0,0,0,290.1,8.38Z"/><path d="M344.06,72.3l7.33-4.39q7.73,14.24,17.87,14.24a17.19,17.19,0,0,0,8.14-2,14.36,14.36,0,0,0,5.8-5.42,14,14,0,0,0,2-7.21,14.66,14.66,0,0,0-2.93-8.5q-4-5.73-14.77-13.82T354.08,33.4a21.58,21.58,0,0,1-4.57-13.19A20,20,0,0,1,352.21,10a19.15,19.15,0,0,1,7.58-7.29A21.88,21.88,0,0,1,370.43,0a22.72,22.72,0,0,1,11.4,3q5.3,3,11.22,11.1l-7,5.33Q381.15,13,377.72,11a14.23,14.23,0,0,0-7.47-2.05,11.81,11.81,0,0,0-8.52,3.16,10.35,10.35,0,0,0-3.31,7.79,13.29,13.29,0,0,0,1.17,5.45,19.93,19.93,0,0,0,4.28,5.74q1.69,1.65,11.13,8.62,11.19,8.27,15.35,14.71a23.7,23.7,0,0,1,4.16,12.94,22,22,0,0,1-7.12,16.29,23.9,23.9,0,0,1-17.31,6.92,25.42,25.42,0,0,1-14.24-4.19Q349.45,82.16,344.06,72.3Z"/><path d="M448,2.17l40.19,86.19h-9.3L465.28,60H428.15L414.73,88.36h-9.61L445.84,2.17Zm-1.09,18.31-14.77,31.2h29.47Z"/><path d="M500.27,2.17h8.62V88.36h-8.62Z"/><path d="M517.44,97.38h61.41v6H517.44Z"/><path d="M594,22.15h-8.79q2.4-10.66,9.2-16.41A24.14,24.14,0,0,1,610.49,0a26.56,26.56,0,0,1,12.57,3.08,22.77,22.77,0,0,1,9,8.29,20.54,20.54,0,0,1,3.19,10.9q0,11.13-11.07,17.63a25,25,0,0,1,10.19,7.39A23.58,23.58,0,0,1,640,62.64a27.36,27.36,0,0,1-3.87,14,26.77,26.77,0,0,1-10.54,10.28,30.72,30.72,0,0,1-15,3.64q-11.13,0-18.57-6.42t-9.73-18.84h8.44q2.22,8.39,6.39,12.13,5.32,4.75,13.59,4.75,9.38,0,15.06-5.63a18,18,0,0,0,5.68-13.18,17,17,0,0,0-2.84-9.43,17.81,17.81,0,0,0-7.62-6.62q-4.77-2.24-14.79-2.76V36.62a27.09,27.09,0,0,0,10.78-2.08,15.64,15.64,0,0,0,7.06-5.3,12.19,12.19,0,0,0,2.2-7,12.8,12.8,0,0,0-4.48-9.73,16.18,16.18,0,0,0-11.34-4.1,15.21,15.21,0,0,0-9.61,3.13Q596.83,14.65,594,22.15Z"/><path d="M648.46,45.29q0-17,3.66-26.36T662.46,4.8A25,25,0,0,1,677.4,0a25.59,25.59,0,0,1,15.18,4.83q6.79,4.85,10.75,14.51t4,26q0,16.23-3.9,25.84t-10.75,14.5a25.58,25.58,0,0,1-15.24,4.9,24.87,24.87,0,0,1-14.88-4.75Q655.89,81,652.18,71.63T648.46,45.29Zm8.14.15q0,14.6,2.61,22.08t7.7,11.34a17,17,0,0,0,21.51.09q5-3.78,7.56-11.34,3.21-9.21,3.22-22.17t-2.87-21.32q-2.88-8.3-7.94-12.13a16.9,16.9,0,0,0-21.48,0q-5,3.84-7.67,11.31T656.6,45.44Z"/><line class="cls-1" x1="694.79" y1="14.72" x2="659.27" y2="76.24"/></g></g></svg>