<svg xmlns="http://www.w3.org/2000/svg" viewBox="0 0 726.21 103.36"><title>shikosai30_b</title><g id="レイヤー_2" data-name="レイヤー 2"><g id="レイヤー_1-2" data-name="レイヤー 1"><path d="M52.68,13.89,40.52,24.61q-6.39-8.91-13-8.91a7.94,7.94,0,0,0-5.28,1.73,5,5,0,0,0-2.05,3.9,6.66,6.66,0,0,0,1.46,4.1q2,2.58,12,11.07Q43.05,44.36,45,46.41A34.58,34.58,0,0,1,52.12,56,24.23,24.23,0,0,1,54.2,66.09a23.06,23.06,0,0,1-7.33,17.52q-7.34,6.92-19.13,6.92A28.53,28.53,0,0,1,11.7,86Q4.88,81.51,0,71.84l13.79-8.32Q20,74.93,28.11,74.94a10.54,10.54,0,0,0,7.1-2.46,7.31,7.31,0,0,0,2.88-5.68,9.79,9.79,0,0,0-2.18-5.86Q33.74,58,26.35,52,12.27,40.5,8.15,34.25A22.51,22.51,0,0,1,4,21.8,20.34,20.34,0,0,1,10.88,6.42,23.67,23.67,0,0,1,27.74,0,26.64,26.64,0,0,1,40,3Q45.87,6,52.68,13.89Z"/><path d="M69.79,2.17H86.43V34.69H115.2V2.17h16.58V88.36H115.2V50.57H86.43V88.36H69.79Z"/><path d="M150.29,2.17h16.29V88.36H150.29Z"/><path d="M185.16,2.17h16.58V31.88l23.4-29.71h19.7l-30.1,38.46,33,47.73H228.31l-26.57-38.3v38.3H185.16Z"/><path d="M300.15,0A42.82,42.82,0,0,1,331.6,13.24a44.06,44.06,0,0,1,13.17,32.29q0,18.87-13,31.93a42.79,42.79,0,0,1-31.52,13.07q-19.41,0-32.24-13.42a44.53,44.53,0,0,1-12.84-31.88A44.78,44.78,0,0,1,277.6,6.06,44.24,44.24,0,0,1,300.15,0ZM300,16.05a27.06,27.06,0,0,0-20.12,8.33q-8.14,8.31-8.15,21.15,0,14.3,10.26,22.61a28.13,28.13,0,0,0,18.3,6.51,26.73,26.73,0,0,0,19.89-8.44,28.68,28.68,0,0,0,8.21-20.8,28.8,28.8,0,0,0-8.27-20.83A27,27,0,0,0,300,16.05Z"/><path d="M405.47,13.89,393.32,24.61q-6.4-8.91-13-8.91A7.94,7.94,0,0,0,375,17.43a5,5,0,0,0-2.05,3.9,6.67,6.67,0,0,0,1.47,4.1q2,2.58,12,11.07,9.39,7.86,11.39,9.91A34.52,34.52,0,0,1,404.91,56,24.08,24.08,0,0,1,407,66.09a23,23,0,0,1-7.33,17.52q-7.34,6.92-19.12,6.92A28.54,28.54,0,0,1,364.49,86q-6.83-4.51-11.7-14.18l13.79-8.32q6.23,11.41,14.32,11.42a10.52,10.52,0,0,0,7.1-2.46,7.31,7.31,0,0,0,2.88-5.68,9.84,9.84,0,0,0-2.17-5.86q-2.18-2.92-9.57-9-14.08-11.47-18.2-17.72a22.49,22.49,0,0,1-4.1-12.45,20.33,20.33,0,0,1,6.83-15.38A23.71,23.71,0,0,1,380.54,0a26.67,26.67,0,0,1,12.29,3Q398.67,6,405.47,13.89Z"/><path d="M448.93,2.17h16.64l33.15,86.19H481.67l-6.74-17.75H439.76l-7,17.75H415.69ZM457.35,25,445.79,54.61h23.06Z"/><path d="M510.23,2.17h16.29V88.36H510.23Z"/><path d="M534.43,97.38h61.41v6H534.43Z"/><path d="M617.93,23.44H602.17Q603.4,13.89,609,8.09A26.4,26.4,0,0,1,628.77,0a25,25,0,0,1,17.78,6.74,21.19,21.19,0,0,1,7.18,16,18.69,18.69,0,0,1-3.13,10.49,22.4,22.4,0,0,1-9.12,7.68,23.24,23.24,0,0,1,12.28,8.17,22.09,22.09,0,0,1,4.42,13.74,26,26,0,0,1-8.55,19.66q-8.57,8.06-21.8,8.06-12.54,0-20.45-7.59t-8.67-20.65h16.23q1,6.67,4.66,9.93a14.25,14.25,0,0,0,18.63-.44,12.39,12.39,0,0,0-1.32-18.93q-5.08-4-14.7-4.16V34.63A26.44,26.44,0,0,0,631,32.78,10.86,10.86,0,0,0,635.54,29a9,9,0,0,0,1.61-5.09,7.65,7.65,0,0,0-2.46-5.83,9,9,0,0,0-6.45-2.32,10.46,10.46,0,0,0-6.38,2.14A10.66,10.66,0,0,0,617.93,23.44Z"/><path d="M695.68,0a28.24,28.24,0,0,1,16.26,4.63q6.82,4.64,10.55,14.15t3.72,26.51q0,17.18-3.78,26.72T712.27,86q-6.39,4.48-16.12,4.49T679.8,86q-6.62-4.51-10.37-13.72t-3.75-26.19q0-23.73,7.33-34.39Q681.16,0,695.68,0Zm.38,15.59a11.22,11.22,0,0,0-7.36,2.66q-3.23,2.67-4.91,9.17t-1.7,19q0,16.35,3.89,22.59t10.08,6.24q6,0,9.48-5.91,4.26-7.15,4.26-23.91,0-17-3.83-23.44T696.06,15.59Z"/></g></g></svg>