<svg xmlns="http://www.w3.org/2000/svg" viewBox="0 0 505.43 90.53"><title>thanks_b</title><g id="レイヤー_2" data-name="レイヤー 2"><g id="レイヤー_1-2" data-name="レイヤー 1"><path d="M0,2.17H47.64V18.34H31.93v70H15.29v-70H0Z"/><path d="M58.83,2.17H75.47V34.69h28.77V2.17h16.58V88.36H104.24V50.57H75.47V88.36H58.83Z"/><path d="M166.8,2.17h16.64l33.15,86.19H199.54L192.8,70.61H157.63l-7,17.75H133.56ZM175.22,25,163.66,54.61h23.06Z"/><path d="M229.34,2.17h15.73L282,58.89V2.17h16.41V88.36H282.58L245.74,31.82V88.36h-16.4Z"/><path d="M318.16,2.17h16.59V31.88L358.14,2.17h19.7L347.75,40.63l33,47.73H361.32l-26.57-38.3v38.3H318.16Z"/><path d="M437.7,13.89,425.54,24.61q-6.39-8.91-13-8.91a7.94,7.94,0,0,0-5.28,1.73,5,5,0,0,0-2.05,3.9,6.72,6.72,0,0,0,1.46,4.1q2,2.58,12,11.07,9.39,7.86,11.38,9.91A34.12,34.12,0,0,1,437.13,56a24.08,24.08,0,0,1,2.09,10.05,23.07,23.07,0,0,1-7.33,17.52q-7.33,6.92-19.13,6.92a28.5,28.5,0,0,1-16-4.51Q389.9,81.51,385,71.84l13.79-8.32Q405,74.93,413.13,74.94a10.54,10.54,0,0,0,7.1-2.46,7.31,7.31,0,0,0,2.88-5.68,9.79,9.79,0,0,0-2.18-5.86q-2.16-2.94-9.56-9-14.08-11.47-18.2-17.72a22.51,22.51,0,0,1-4.11-12.45A20.34,20.34,0,0,1,395.9,6.42,23.69,23.69,0,0,1,412.76,0a26.61,26.61,0,0,1,12.29,3Q430.89,6,437.7,13.89Z"/><path d="M461.78,70a9.79,9.79,0,0,1,7.12,2.93,9.94,9.94,0,0,1,0,14.15,10,10,0,0,1-14.21,0A10,10,0,0,1,461.78,70ZM453.69,0h16.17V63H453.69Z"/><path d="M495.35,70a9.77,9.77,0,0,1,7.12,2.93,9.94,9.94,0,0,1,0,14.15A10,10,0,1,1,495.35,70ZM487.27,0h16.17V63H487.27Z"/></g></g></svg>