<svg xmlns="http://www.w3.org/2000/svg" viewBox="0 0 499.63 90.53"><title>thanks</title><g id="レイヤー_2" data-name="レイヤー 2"><g id="レイヤー_1-2" data-name="レイヤー 1"><path d="M0,10.61V2.17H47.23v8.44H28V88.36H19.22V10.61Z"/><path d="M59.53,2.17h8.61V38.32H112V2.17h8.61V88.36H112V46.76H68.14v41.6H59.53Z"/><path d="M176.84,2.17,217,88.36h-9.3L194.17,60H157L143.61,88.36H134L174.73,2.17Zm-1.09,18.31L161,51.68h29.47Z"/><path d="M230.45,88.36V2.17h1.87l57.37,66.07V2.17h8.49V88.36h-1.93L239.36,23.09V88.36Z"/><path d="M319.16,2.17H328V34.51L362.4,2.17H374L332.58,40.84,377.2,88.36H365.72L328,48.21V88.36h-8.79Z"/><path d="M381.15,72.3l7.33-4.39q7.72,14.24,17.87,14.24a17.19,17.19,0,0,0,8.14-2,14.36,14.36,0,0,0,5.8-5.42,14,14,0,0,0,2-7.21,14.66,14.66,0,0,0-2.93-8.5q-4-5.73-14.77-13.82T391.17,33.4a21.52,21.52,0,0,1-4.57-13.19A20,20,0,0,1,389.3,10a19.15,19.15,0,0,1,7.58-7.29A21.88,21.88,0,0,1,407.52,0a22.72,22.72,0,0,1,11.4,3q5.29,3,11.22,11.1l-7,5.33c-3.25-4.29-6-7.13-8.3-8.49a14.23,14.23,0,0,0-7.47-2.05,11.81,11.81,0,0,0-8.52,3.16,10.35,10.35,0,0,0-3.31,7.79,13.29,13.29,0,0,0,1.17,5.45A20.06,20.06,0,0,0,401,31.05q1.69,1.65,11.13,8.62,11.19,8.27,15.35,14.71a23.7,23.7,0,0,1,4.16,12.94,22,22,0,0,1-7.12,16.29,23.92,23.92,0,0,1-17.31,6.92,25.42,25.42,0,0,1-14.24-4.19Q386.54,82.16,381.15,72.3Z"/><path d="M457,75.47a7.27,7.27,0,1,1-5.1,12.39,7.32,7.32,0,0,1,0-10.28A7,7,0,0,1,457,75.47ZM461.19,0V66.8H452.7V0Z"/><path d="M492.42,75.47a7.27,7.27,0,1,1-5.1,12.39,7.32,7.32,0,0,1,0-10.28A7,7,0,0,1,492.42,75.47ZM496.58,0V66.8h-8.49V0Z"/></g></g></svg>