<?xml version="1.0" encoding="UTF-8" standalone="no"?>
<!-- Created with Inkscape (http://www.inkscape.org/) -->

<svg
   xmlns:dc="http://purl.org/dc/elements/1.1/"
   xmlns:cc="http://creativecommons.org/ns#"
   xmlns:rdf="http://www.w3.org/1999/02/22-rdf-syntax-ns#"
   xmlns:svg="http://www.w3.org/2000/svg"
   xmlns="http://www.w3.org/2000/svg"
   xmlns:sodipodi="http://sodipodi.sourceforge.net/DTD/sodipodi-0.dtd"
   xmlns:inkscape="http://www.inkscape.org/namespaces/inkscape"
   width="129.82224mm"
   height="93.588646mm"
   viewBox="0 0 460.00005 331.61331"
   id="svg4825"
   version="1.1"
   inkscape:version="0.91 r13725"
   sodipodi:docname="icon_tent.svg"
   inkscape:export-filename="C:\Users\regul\Desktop\g5391.png"
   inkscape:export-xdpi="171.534"
   inkscape:export-ydpi="171.534">
  <defs
     id="defs4827">
    <inkscape:perspective
       sodipodi:type="inkscape:persp3d"
       inkscape:vp_x="-20.203052 : 419.10492 : 1"
       inkscape:vp_y="0 : 999.99998 : 0"
       inkscape:vp_z="659.2417 : 461.53133 : 1"
       inkscape:persp3d-origin="372.04725 : 350.7874 : 1"
       id="perspective5389" />
  </defs>
  <sodipodi:namedview
     id="base"
     pagecolor="#ffffff"
     bordercolor="#666666"
     borderopacity="1.0"
     inkscape:pageopacity="0.0"
     inkscape:pageshadow="2"
     inkscape:zoom="1.4"
     inkscape:cx="46.548956"
     inkscape:cy="94.509031"
     inkscape:document-units="px"
     inkscape:current-layer="layer1"
     showgrid="true"
     inkscape:object-nodes="true"
     inkscape:snap-intersection-paths="false"
     inkscape:snap-smooth-nodes="true"
     inkscape:snap-midpoints="true"
     inkscape:snap-grids="false"
     fit-margin-top="0"
     fit-margin-left="0"
     fit-margin-right="0"
     fit-margin-bottom="0">
    <inkscape:grid
       type="xygrid"
       id="grid5483"
       originx="-99.999981"
       originy="91.613274" />
  </sodipodi:namedview>
  <metadata
     id="metadata4830">
    <rdf:RDF>
      <cc:Work
         rdf:about="">
        <dc:format>image/svg+xml</dc:format>
        <dc:type
           rdf:resource="http://purl.org/dc/dcmitype/StillImage" />
        <dc:title />
      </cc:Work>
    </rdf:RDF>
  </metadata>
  <g
     inkscape:label="レイヤー 1"
     inkscape:groupmode="layer"
     id="layer1"
     transform="translate(-99.999977,-812.3622)">
    <path
       sodipodi:nodetypes="ccccc"
       inkscape:connector-curvature="0"
       id="path5578"
       d="m 500,812.3622 -340,0 -60.000012,140.00005 344.999992,0 z"
       style="opacity:1;fill:#a1d3ff;fill-opacity:1;fill-rule:nonzero;stroke:none;stroke-width:10;stroke-miterlimit:4;stroke-dasharray:none;stroke-opacity:1" />
    <path
       transform="matrix(1,0,0.38516434,0.922848,0,0)"
       style="opacity:1;fill:#4aaaff;fill-opacity:1;fill-rule:nonzero;stroke:none;stroke-width:10;stroke-miterlimit:4;stroke-dasharray:none;stroke-opacity:1"
       d="m -179.05145,880.27736 340,0 1.56891,151.70434 -344.99999,0 z"
       id="rect5575"
       inkscape:connector-curvature="0"
       sodipodi:nodetypes="ccccc" />
    <path
       style="opacity:1;fill:#299aff;fill-opacity:1;fill-rule:nonzero;stroke:none;stroke-width:10;stroke-miterlimit:4;stroke-dasharray:none;stroke-opacity:1"
       d="m 99.999988,952.36225 9.774102,0 0,191.61325 -9.774102,0 z"
       id="rect5523-6"
       inkscape:connector-curvature="0"
       sodipodi:nodetypes="ccccc" />
    <path
       style="opacity:1;fill:#299aff;fill-opacity:1;fill-rule:nonzero;stroke:none;stroke-width:10;stroke-miterlimit:4;stroke-dasharray:none;stroke-opacity:1"
       d="m 210.11297,952.36225 9.7741,0 0,191.61325 -9.7741,0 z"
       id="rect5523-6-5"
       inkscape:connector-curvature="0"
       sodipodi:nodetypes="ccccc" />
    <path
       style="opacity:1;fill:#299aff;fill-opacity:1;fill-rule:nonzero;stroke:none;stroke-width:10;stroke-miterlimit:4;stroke-dasharray:none;stroke-opacity:1"
       d="m 550.22591,952.36225 9.7741,0 0,191.61325 -9.7741,0 z"
       id="rect5523-6-2"
       inkscape:connector-curvature="0"
       sodipodi:nodetypes="ccccc" />
    <path
       style="opacity:1;fill:#299aff;fill-opacity:1;fill-rule:nonzero;stroke:none;stroke-width:10;stroke-miterlimit:4;stroke-dasharray:none;stroke-opacity:1"
       d="m 440.11293,952.36225 9.7741,0 0,191.61325 -9.7741,0 z"
       id="rect5523-6-4"
       inkscape:connector-curvature="0"
       sodipodi:nodetypes="ccccc" />
    <path
       style="opacity:1;fill:#0069c5;fill-opacity:1;fill-rule:nonzero;stroke:none;stroke-width:10;stroke-miterlimit:4;stroke-dasharray:none;stroke-opacity:1"
       d="m 122.99999,952.36225 c 0,6.3513 -5.14873,11.5 -11.5,11.5 -6.35128,0 -11.500002,-5.1487 -11.500002,-11.5 z"
       id="path5580"
       inkscape:connector-curvature="0"
       sodipodi:nodetypes="cscc" />
    <path
       style="opacity:1;fill:#0069c5;fill-opacity:1;fill-rule:nonzero;stroke:none;stroke-width:10;stroke-miterlimit:4;stroke-dasharray:none;stroke-opacity:1"
       d="m 145.99999,952.36225 c 0,6.3513 -5.14873,11.5 -11.5,11.5 -6.35128,0 -11.5,-5.1487 -11.5,-11.5 z"
       id="path5580-1"
       inkscape:connector-curvature="0"
       sodipodi:nodetypes="cscc" />
    <path
       style="opacity:1;fill:#0069c5;fill-opacity:1;fill-rule:nonzero;stroke:none;stroke-width:10;stroke-miterlimit:4;stroke-dasharray:none;stroke-opacity:1"
       d="m 168.99999,952.36225 c 0,6.3513 -5.14873,11.5 -11.5,11.5 -6.35128,0 -11.5,-5.1487 -11.5,-11.5 z"
       id="path5580-5"
       inkscape:connector-curvature="0"
       sodipodi:nodetypes="cscc" />
    <path
       style="opacity:1;fill:#0069c5;fill-opacity:1;fill-rule:nonzero;stroke:none;stroke-width:10;stroke-miterlimit:4;stroke-dasharray:none;stroke-opacity:1"
       d="m 191.99999,952.36225 c 0,6.3513 -5.14873,11.5 -11.5,11.5 -6.35128,0 -11.5,-5.1487 -11.5,-11.5 z"
       id="path5580-2"
       inkscape:connector-curvature="0"
       sodipodi:nodetypes="cscc" />
    <path
       style="opacity:1;fill:#0069c5;fill-opacity:1;fill-rule:nonzero;stroke:none;stroke-width:10;stroke-miterlimit:4;stroke-dasharray:none;stroke-opacity:1"
       d="m 214.99999,952.36225 c 0,6.3513 -5.14873,11.5 -11.5,11.5 -6.35128,0 -11.5,-5.1487 -11.5,-11.5 z"
       id="path5580-29"
       inkscape:connector-curvature="0"
       sodipodi:nodetypes="cscc" />
    <path
       style="opacity:1;fill:#0069c5;fill-opacity:1;fill-rule:nonzero;stroke:none;stroke-width:10;stroke-miterlimit:4;stroke-dasharray:none;stroke-opacity:1"
       d="m 238.00003,952.36225 c 0,6.3513 -5.14873,11.5 -11.5,11.5 -6.35128,0 -11.5,-5.1487 -11.5,-11.5 z"
       id="path5580-56"
       inkscape:connector-curvature="0"
       sodipodi:nodetypes="cscc" />
    <path
       style="opacity:1;fill:#0069c5;fill-opacity:1;fill-rule:nonzero;stroke:none;stroke-width:10;stroke-miterlimit:4;stroke-dasharray:none;stroke-opacity:1"
       d="m 261.00003,952.36225 c 0,6.3513 -5.14873,11.5 -11.5,11.5 -6.35128,0 -11.5,-5.1487 -11.5,-11.5 z"
       id="path5580-1-2"
       inkscape:connector-curvature="0"
       sodipodi:nodetypes="cscc" />
    <path
       style="opacity:1;fill:#0069c5;fill-opacity:1;fill-rule:nonzero;stroke:none;stroke-width:10;stroke-miterlimit:4;stroke-dasharray:none;stroke-opacity:1"
       d="m 284.00003,952.36225 c 0,6.3513 -5.14873,11.5 -11.5,11.5 -6.35128,0 -11.5,-5.1487 -11.5,-11.5 z"
       id="path5580-5-8"
       inkscape:connector-curvature="0"
       sodipodi:nodetypes="cscc" />
    <path
       style="opacity:1;fill:#0069c5;fill-opacity:1;fill-rule:nonzero;stroke:none;stroke-width:10;stroke-miterlimit:4;stroke-dasharray:none;stroke-opacity:1"
       d="m 307.00003,952.36225 c 0,6.3513 -5.14873,11.5 -11.5,11.5 -6.35128,0 -11.5,-5.1487 -11.5,-11.5 z"
       id="path5580-2-5"
       inkscape:connector-curvature="0"
       sodipodi:nodetypes="cscc" />
    <path
       style="opacity:1;fill:#0069c5;fill-opacity:1;fill-rule:nonzero;stroke:none;stroke-width:10;stroke-miterlimit:4;stroke-dasharray:none;stroke-opacity:1"
       d="m 330.00003,952.36225 c 0,6.3513 -5.14873,11.5 -11.5,11.5 -6.35128,0 -11.5,-5.1487 -11.5,-11.5 z"
       id="path5580-29-0"
       inkscape:connector-curvature="0"
       sodipodi:nodetypes="cscc" />
    <path
       style="opacity:1;fill:#0069c5;fill-opacity:1;fill-rule:nonzero;stroke:none;stroke-width:10;stroke-miterlimit:4;stroke-dasharray:none;stroke-opacity:1"
       d="m 353.00003,952.36225 c 0,6.3513 -5.14873,11.5 -11.5,11.5 -6.35128,0 -11.5,-5.1487 -11.5,-11.5 z"
       id="path5580-9"
       inkscape:connector-curvature="0"
       sodipodi:nodetypes="cscc" />
    <path
       style="opacity:1;fill:#0069c5;fill-opacity:1;fill-rule:nonzero;stroke:none;stroke-width:10;stroke-miterlimit:4;stroke-dasharray:none;stroke-opacity:1"
       d="m 376.00003,952.36225 c 0,6.3513 -5.14873,11.5 -11.5,11.5 -6.35128,0 -11.5,-5.1487 -11.5,-11.5 z"
       id="path5580-1-9"
       inkscape:connector-curvature="0"
       sodipodi:nodetypes="cscc" />
    <path
       style="opacity:1;fill:#0069c5;fill-opacity:1;fill-rule:nonzero;stroke:none;stroke-width:10;stroke-miterlimit:4;stroke-dasharray:none;stroke-opacity:1"
       d="m 399.00003,952.36225 c 0,6.3513 -5.14873,11.5 -11.5,11.5 -6.35128,0 -11.5,-5.1487 -11.5,-11.5 z"
       id="path5580-5-4"
       inkscape:connector-curvature="0"
       sodipodi:nodetypes="cscc" />
    <path
       style="opacity:1;fill:#0069c5;fill-opacity:1;fill-rule:nonzero;stroke:none;stroke-width:10;stroke-miterlimit:4;stroke-dasharray:none;stroke-opacity:1"
       d="m 422.00003,952.36225 c 0,6.3513 -5.14873,11.5 -11.5,11.5 -6.35128,0 -11.5,-5.1487 -11.5,-11.5 z"
       id="path5580-2-1"
       inkscape:connector-curvature="0"
       sodipodi:nodetypes="cscc" />
    <path
       style="opacity:1;fill:#0069c5;fill-opacity:1;fill-rule:nonzero;stroke:none;stroke-width:10;stroke-miterlimit:4;stroke-dasharray:none;stroke-opacity:1"
       d="m 445.00003,952.36225 c 0,6.3513 -5.14873,11.5 -11.5,11.5 -6.35128,0 -11.5,-5.1487 -11.5,-11.5 z"
       id="path5580-29-9"
       inkscape:connector-curvature="0"
       sodipodi:nodetypes="cscc" />
    <path
       style="opacity:1;fill:#0069c5;fill-opacity:1;fill-rule:nonzero;stroke:none;stroke-width:10;stroke-miterlimit:4;stroke-dasharray:none;stroke-opacity:1"
       d="m 468.00003,952.36225 c 0,6.3513 -5.14873,11.5 -11.5,11.5 -6.35128,0 -11.5,-5.1487 -11.5,-11.5 z"
       id="path5580-6"
       inkscape:connector-curvature="0"
       sodipodi:nodetypes="cscc" />
    <path
       style="opacity:1;fill:#0069c5;fill-opacity:1;fill-rule:nonzero;stroke:none;stroke-width:10;stroke-miterlimit:4;stroke-dasharray:none;stroke-opacity:1"
       d="m 491.00003,952.36225 c 0,6.3513 -5.14873,11.5 -11.5,11.5 -6.35128,0 -11.5,-5.1487 -11.5,-11.5 z"
       id="path5580-1-7"
       inkscape:connector-curvature="0"
       sodipodi:nodetypes="cscc" />
    <path
       style="opacity:1;fill:#0069c5;fill-opacity:1;fill-rule:nonzero;stroke:none;stroke-width:10;stroke-miterlimit:4;stroke-dasharray:none;stroke-opacity:1"
       d="m 514.00003,952.36225 c 0,6.3513 -5.14873,11.5 -11.5,11.5 -6.35128,0 -11.5,-5.1487 -11.5,-11.5 z"
       id="path5580-5-85"
       inkscape:connector-curvature="0"
       sodipodi:nodetypes="cscc" />
    <path
       style="opacity:1;fill:#0069c5;fill-opacity:1;fill-rule:nonzero;stroke:none;stroke-width:10;stroke-miterlimit:4;stroke-dasharray:none;stroke-opacity:1"
       d="m 537.00003,952.36225 c 0,6.3513 -5.14873,11.5 -11.5,11.5 -6.35128,0 -11.5,-5.1487 -11.5,-11.5 z"
       id="path5580-2-57"
       inkscape:connector-curvature="0"
       sodipodi:nodetypes="cscc" />
    <path
       style="opacity:1;fill:#0069c5;fill-opacity:1;fill-rule:nonzero;stroke:none;stroke-width:10;stroke-miterlimit:4;stroke-dasharray:none;stroke-opacity:1"
       d="m 560.00003,952.36225 c 0,6.3513 -5.14873,11.5 -11.5,11.5 -6.35128,0 -11.5,-5.1487 -11.5,-11.5 z"
       id="path5580-29-05"
       inkscape:connector-curvature="0"
       sodipodi:nodetypes="cscc" />
  </g>
</svg>
