<?xml version="1.0" encoding="utf-8"?>
<!-- Generator: Adobe Illustrator 22.1.0, SVG Export Plug-In . SVG Version: 6.00 Build 0)  -->
<svg version="1.1"
	 id="svg2" inkscape:version="0.91 r13725" sodipodi:docname="logo-top.svg" xmlns:cc="http://creativecommons.org/ns#" xmlns:dc="http://purl.org/dc/elements/1.1/" xmlns:inkscape="http://www.inkscape.org/namespaces/inkscape" xmlns:osb="http://www.openswatchbook.org/uri/2009/osb" xmlns:rdf="http://www.w3.org/1999/02/22-rdf-syntax-ns#" xmlns:sodipodi="http://sodipodi.sourceforge.net/DTD/sodipodi-0.dtd" xmlns:svg="http://www.w3.org/2000/svg"
	 xmlns="http://www.w3.org/2000/svg" xmlns:xlink="http://www.w3.org/1999/xlink" x="0px" y="0px" viewBox="0 0 400 68"
	 style="enable-background:new 0 0 400 68;" xml:space="preserve">
<style type="text/css">
	.st0{stroke:#000000;stroke-width:0.25;}
</style>
<g id="text" transform="matrix(0.77028005,0,0,0.77028005,110.42933,75.803247)">
	<g id="text4141">
		<path id="path5263" inkscape:connector-curvature="0" d="M-124.3-76c-6.2,0-10.8,1.4-14.3,4.4c-3.2,2.8-4.8,6.1-4.8,10.2
			c0,4,1.4,7.1,4.2,9.4c1.2,1,2.7,2,4.5,2.8c1.8,0.8,4.9,1.8,9.3,3.2c1.6,0.4,3,1,4.2,1.6c1.2,0.6,2.2,1.5,3,2.4
			c0.8,0.9,1.2,2.3,1.2,4.2c0,1.9-0.9,3.6-2.6,5.1c-1.9,1.6-4.5,2.5-7.8,2.5c-4,0-7.5-0.6-10.3-2c-0.4-4-0.6-6.1-0.6-6.4
			c-0.2-0.8-0.7-1.2-1.5-1.2h-3.6v13.3c5.4,1.8,11.1,2.7,16.5,2.7c5.4,0,10-1.7,13.5-4.7c3.3-2.9,4.9-6.8,4.9-11.7
			c0-3.7-1.3-6.6-4.1-8.8c-1.2-1-2.6-2-4.2-2.6l-4.8-1.8c-1.6-0.6-3.7-1.1-6.2-1.9c-2.5-0.8-4.4-1.9-5.8-3.5
			c-0.8-0.8-1.2-2.1-1.2-3.8c0-1.7,0.9-3.2,2.7-4.6c1.8-1.4,4.1-2.2,6.9-2.2h0.1c2.2,0,4.8,0.4,7.8,1.1c0.4,4.2,0.6,6.4,0.6,6.6
			c0.2,1,0.7,1.4,1.7,1.4h3.9v-9.5v-3.5c-5.3-1.8-9.7-2.7-13.3-2.7L-124.3-76L-124.3-76z"/>
		<path id="path5265" inkscape:connector-curvature="0" d="M-86.7-68.4v-29.9H-104v4.2c0,1,0.6,1.7,1.6,1.9c0.6,0.2,2.8,0.6,6.6,1.2
			v59.4l-5.6,1.1c-1,0.2-1.6,0.9-1.6,1.9v4.2h23.5v-4.2c0-1-0.6-1.7-1.6-1.9c-0.4-0.1-1.8-0.4-4.4-0.9l-1.2-0.2v-30.1
			c4.2-4.7,8.6-7.1,13.7-7.1c7.1,0,10.7,4.1,10.7,12.2v32.3h16.2v-4.2c0-1-0.5-1.7-1.5-1.9c-0.6-0.2-2.5-0.6-5.7-1.2v-25
			c0-5.8-1.5-10.6-4.4-14.1c-3-3.5-7.2-5.2-12.7-5.2C-76.5-76-81.9-73.4-86.7-68.4L-86.7-68.4z"/>
		<path id="path5267" inkscape:connector-curvature="0" d="M-33.1-86.8c0.6,0.6,1.2,1,2,1.4c0.8,0.4,1.6,0.5,2.4,0.5
			c0.8,0,1.6-0.1,2.4-0.5c0.8-0.4,1.4-0.8,2-1.4c0.6-0.6,1-1.2,1.4-2c0.4-0.8,0.6-1.6,0.6-2.4c0-0.8-0.2-1.7-0.6-2.5
			c-0.4-0.8-0.8-1.5-1.4-2.1c-0.6-0.6-1.2-1-2-1.4c-0.8-0.4-1.6-0.5-2.4-0.5c-0.8,0-1.6,0.1-2.4,0.5c-0.8,0.4-1.4,0.8-2,1.4
			c-0.6,0.6-1,1.3-1.4,2.1c-0.4,0.8-0.5,1.7-0.5,2.5c0,0.8,0.1,1.6,0.5,2.4C-34.1-88-33.7-87.4-33.1-86.8z M-18.6-30.6
			c-0.9-0.2-5.7-1.1-5.7-1.1v-43.5h-16.2v4.2c0,0.9,0.6,1.7,1.5,1.9c0.9,0.2,5.8,1.1,5.8,1.1v36.3c0,0-4.9,0.9-5.8,1.1
			c-0.9,0.2-1.5,1-1.5,1.9v4.3h23.4v-4.3C-17.1-29.6-17.7-30.4-18.6-30.6L-18.6-30.6z"/>
		<path id="path5269" inkscape:connector-curvature="0" d="M39.3-30.6c-0.4,0-1.5-0.2-3.2-0.6l-2.6-0.4L19.4-49.5
			c-0.8-1.4-1.8-2.3-3-3.1c1-0.6,1.9-1.5,2.9-2.7L31.2-68c3.3-0.6,5.4-1,6.2-1.2c0.8-0.2,1.3-0.8,1.3-1.8v-4.2h-0.6h-8.2H17.4v4.2
			c0,1,0.6,1.7,1.6,1.9c0.4,0.1,0.8,0.1,1.6,0.3c0.4,0,0.8,0.2,1.2,0.2L10.4-56.3c-0.8,1-2,1.4-3.2,1.4H4.9v-43.5h-9h-7.2v4.3
			c0,1,0.5,1.6,1.5,1.8c0.6,0.2,2.5,0.6,5.7,1.2v59.4l-5.7,1.1c-1,0.2-1.5,0.9-1.5,1.9v4.3h23.5v-4.3c0-1-0.6-1.7-1.6-1.9
			c-3.4-0.7-5.2-1.1-5.6-1.1v-17h2.4c1,0,1.8,0.1,2.3,0.3c0.5,0.2,1,0.6,1.5,1.3l16.7,20.9c1,1.2,2.1,1.8,3.4,1.8h9.4v-4.4
			c0-1-0.5-1.6-1.5-1.8L39.3-30.6L39.3-30.6z"/>
		<path id="path5271" inkscape:connector-curvature="0" d="M67.1-76c-3.7,0-7,0.6-10,1.8c-3,1.2-5.6,3-7.7,5.2
			c-2.1,2.2-3.7,5-4.9,8.2c-1.2,3.2-1.6,6.8-1.6,10.8s0.4,7.6,1.6,10.8c1.2,3.2,2.8,6,4.9,8.2c2.1,2.2,4.7,4,7.7,5.2s6.3,1.8,10,1.8
			c3.7,0,7-0.6,10-1.8c3-1.2,5.6-3,7.7-5.2c2.1-2.2,3.7-5,4.8-8.2c1.1-3.2,1.7-6.8,1.7-10.8s-0.6-7.6-1.7-10.8
			c-1.1-3.2-2.7-6-4.8-8.2c-2.1-2.2-4.7-4-7.7-5.2C74.1-75.4,70.8-76,67.1-76z M67.1-30.6c-2.6,0-4.8-0.6-6.6-1.4
			c-1.8-0.8-3.4-2-4.6-3.6c-1.2-1.6-2.2-3.6-2.8-6c-0.6-2.4-1-5-1-8s0.4-5.8,1-8.2c0.6-2.4,1.6-4.4,2.8-6c1.2-1.6,2.8-3,4.6-3.8
			c1.8-0.8,4-1.2,6.6-1.2c5,0,8.8,1.6,11.3,5c2.4,3.4,3.7,8.1,3.7,14.2c0,6-1.3,10.7-3.7,14.2C75.9-32.2,72.1-30.6,67.1-30.6z"/>
		<path id="path5273" inkscape:connector-curvature="0" d="M116.9-76c-6.2,0-10.8,1.4-14.3,4.4c-3.2,2.8-4.8,6.1-4.8,10.2
			c0,4,1.4,7.1,4.2,9.4c1.2,1,2.7,2,4.5,2.8c1.8,0.8,4.9,1.8,9.3,3.2c1.6,0.4,3,1,4.2,1.6c1.2,0.6,2.2,1.5,3,2.4
			c0.8,0.9,1.2,2.3,1.2,4.2c0,1.9-0.9,3.6-2.6,5.1c-1.9,1.6-4.5,2.5-7.8,2.5c-4,0-7.5-0.6-10.3-2c-0.4-4-0.6-6.1-0.6-6.4
			c-0.2-0.8-0.7-1.2-1.5-1.2h-3.6v13.3c5.4,1.8,11.1,2.7,16.5,2.7c5.4,0,10-1.7,13.5-4.7c3.3-2.9,4.9-6.8,4.9-11.7
			c0-3.7-1.3-6.6-4.1-8.8c-1.2-1-2.6-2-4.2-2.6l-4.8-1.8c-1.6-0.6-3.7-1.1-6.2-1.9c-2.5-0.8-4.4-1.9-5.8-3.5
			c-0.8-0.8-1.2-2.1-1.2-3.8c0-1.7,0.9-3.2,2.7-4.6c1.8-1.4,4.1-2.2,6.9-2.2h0.1c2.2,0,4.8,0.4,7.8,1.1c0.4,4.2,0.6,6.4,0.6,6.6
			c0.2,1,0.7,1.4,1.7,1.4h3.9v-9.5v-3.5c-5.3-1.8-9.7-2.7-13.3-2.7L116.9-76L116.9-76z"/>
		<path id="path5275" inkscape:connector-curvature="0" d="M182.2-30.6c-0.6-0.2-3.6-0.8-5-1.1v-25.4c0-2.8-0.3-5.4-1.1-7.8
			c-0.8-2.4-1.9-4.4-3.4-6c-1.5-1.6-3.3-2.8-5.5-3.8c-2.2-1-4.8-1.4-7.6-1.4c-4,0-7.6,0.6-10.8,2c-3.2,1.4-6.2,3.3-9,6l1.6,2.8
			c0.2,0.4,0.6,0.9,1,1.2c0.4,0.3,1,0.4,1.6,0.4c0.8,0,1.5-0.2,2.3-0.8c0.8-0.6,1.8-1.1,2.9-1.8c1.1-0.7,2.3-1.2,3.8-1.8
			c1.5-0.6,3.3-0.9,5.5-0.9c3.3,0,5.8,1.1,7.5,3.1c1.7,2,2.6,5,2.6,9v3.9c-5.8,0-10.6,0.4-14.7,1.3c-4,0.9-7.2,2.2-9.6,3.6
			c-2.4,1.4-4.3,3.2-5.4,5c-1.1,1.8-1.6,3.8-1.6,5.8c0,2.3,0.3,4.3,1.1,6c0.8,1.7,1.8,3.1,3,4.2c1.2,1.1,2.8,1.8,4.5,2.4
			c1.7,0.6,3.4,0.9,5.4,0.9c2,0,3.8-0.1,5.4-0.5c1.6-0.4,3-0.9,4.4-1.5c1.4-0.6,2.8-1.4,4-2.4c1.2-1,2.6-2.1,4-3.3l1,4.8
			c0.2,0.8,0.4,1.4,1,1.6c0.6,0.2,1.3,0.4,2.1,0.4h3.2h0.7h6.5v-4.3c0-0.9-0.6-1.7-1.5-1.9L182.2-30.6L182.2-30.6z M168.3-36.8
			c-1,1-2,2-3,2.8c-1,0.8-2.1,1.6-3.3,2.2c-1.2,0.6-2.4,1-3.7,1.3c-1.3,0.3-2.6,0.5-4.2,0.5c-1.2,0-2.3-0.2-3.3-0.5
			c-1-0.3-1.8-0.7-2.6-1.3s-1.4-1.4-1.8-2.4c-0.4-1-0.7-2-0.7-3.4c0-1.4,0.4-2.6,1.2-3.8c0.8-1.2,2.2-2.2,4-3c1.8-0.8,4.2-1.6,7-2.1
			c2.8-0.5,6.3-0.7,10.4-0.7V-36.8z"/>
		<path id="path5277" inkscape:connector-curvature="0" d="M196.8-86.8c0.6,0.6,1.2,1,2,1.4c0.8,0.4,1.6,0.5,2.4,0.5
			s1.6-0.1,2.4-0.5c0.8-0.4,1.4-0.8,2-1.4c0.6-0.6,1-1.2,1.4-2c0.4-0.8,0.6-1.6,0.6-2.4c0-0.8-0.2-1.7-0.6-2.5
			c-0.4-0.8-0.8-1.5-1.4-2.1c-0.6-0.6-1.2-1-2-1.4c-0.8-0.4-1.6-0.5-2.4-0.5s-1.6,0.1-2.4,0.5s-1.4,0.8-2,1.4
			c-0.6,0.6-1,1.3-1.4,2.1c-0.4,0.8-0.5,1.7-0.5,2.5c0,0.8,0.1,1.6,0.5,2.4C195.8-88,196.2-87.4,196.8-86.8z M211.4-30.6
			c-0.9-0.2-5.7-1.1-5.7-1.1v-43.5h-16.2v4.2c0,0.9,0.6,1.7,1.5,1.9c0.9,0.2,5.8,1.1,5.8,1.1v36.3c0,0-4.9,0.9-5.8,1.1
			c-0.9,0.2-1.5,1-1.5,1.9v4.3h23.4v-4.3C212.9-29.6,212.3-30.4,211.4-30.6L211.4-30.6z"/>
		<path id="path5279" inkscape:connector-curvature="0" d="M260.9-16.1h-39.6v6h39.6V-16.1z"/>
		<path id="path5281" inkscape:connector-curvature="0" d="M294.7-97.1c-3,0-6,0.4-8.6,1.3c-2.6,0.9-5,2.2-7,3.9
			c-2,1.7-3.7,3.8-5.1,6.3c-1.4,2.5-2.3,5.5-2.7,8.7l4.6,0.8h0.7h0.5c0.8,0,1.5-0.2,2.1-0.6c0.6-0.4,1-1.1,1.2-2.1
			c0.4-1.6,1-3,1.8-4.3c0.8-1.3,1.8-2.4,3-3.4c1.2-1,2.5-1.6,4.1-2.2s3.2-0.8,5-0.8c1.8,0,3.4,0.3,5,0.8c1.6,0.5,2.8,1.2,4,2.2
			c1.2,1,2.2,2.2,2.8,3.8c0.6,1.6,0.9,3.4,0.9,5.4c0,1.8-0.3,3.5-0.9,5.1c-0.6,1.6-1.6,2.8-3,3.9c-1.4,1.1-3,2-5.2,2.6
			c-2.2,0.6-4.8,1.1-7.8,1.1v6.5c3.8,0,6.8,0.4,9.2,1c2.4,0.6,4.2,1.4,5.6,2.6c1.4,1.2,2.3,2.6,2.8,4.2c0.5,1.6,0.8,3.3,0.8,5.3
			c0,1.6-0.4,3.1-1,4.7c-0.6,1.6-1.6,3.1-2.8,4.4c-1.2,1.3-2.9,2.4-4.8,3.2c-1.9,0.8-4.1,1.2-6.6,1.2s-4.5-0.4-6.2-1.2
			c-1.7-0.8-3.1-1.6-4.3-2.6c-1.2-1-2.1-2.2-2.7-3.4c-0.6-1.2-1.2-2.3-1.6-3.3c0-0.2-0.2-0.3-0.2-0.5s-0.2-0.2-0.2-0.4
			c-0.2-0.6-0.6-1.1-1.1-1.4c-0.5-0.3-1.1-0.4-1.7-0.4c-0.7,0-1.5,0.1-2.2,0.4l-3.8,1.6c0.8,2.6,1.9,5.2,3.1,7.5s2.8,4.3,4.6,5.9
			c1.8,1.6,4.2,3,6.9,4c2.7,1,5.9,1.4,9.7,1.4c3.3,0,6.4-0.5,9.3-1.5c2.9-1,5.4-2.5,7.6-4.3c2.2-1.8,3.8-4.1,5-6.7
			c1.2-2.6,1.9-5.6,1.9-8.9c0-4.4-1.1-8-3.5-10.9c-2.4-2.9-6-5-10.6-6.2c1.9-0.6,3.6-1.3,5.2-2.3c1.6-1,2.9-2,4-3.4s1.9-2.9,2.5-4.7
			c0.6-1.8,0.9-3.9,0.9-6.1c0-2.8-0.6-5.2-1.6-7.4c-1-2.2-2.5-4.2-4.3-5.8c-1.8-1.6-4-3-6.6-3.8c-2.6-0.8-5.4-1.2-8.4-1.2
			L294.7-97.1L294.7-97.1z"/>
		<path id="path5283" inkscape:connector-curvature="0" d="M375.9-60.3c0-6.2-0.7-11.8-2.1-16.4c-1.4-4.6-3.1-8.4-5.5-11.5
			c-2.4-3-5.1-5.3-8.3-6.7c-3.2-1.4-6.6-2.2-10.2-2.2c-3.6,0-7,0.8-10.2,2.2c-3.2,1.4-5.9,3.7-8.3,6.7c-2.4,3-4.1,6.8-5.5,11.5
			c-1.4,4.6-2,10.1-2,16.4s0.6,11.8,2,16.4c1.4,4.6,3.1,8.4,5.5,11.5c2.4,3,5.1,5.3,8.3,6.7c3.2,1.4,6.6,2.2,10.2,2.2
			c3.6,0,7-0.8,10.2-2.2c3.2-1.4,5.9-3.7,8.3-6.7c2.4-3,4.1-6.8,5.5-11.5c1.4-4.6,2-10.1,2-16.4L375.9-60.3L375.9-60.3z M366.6-60.3
			c0,5.4-0.5,10.1-1.4,13.9c-0.9,3.7-2,6.7-3.6,8.9c-1.6,2.2-3.4,3.9-5.4,4.9c-2,1-4.2,1.5-6.4,1.5s-4.4-0.5-6.4-1.5
			c-2-1-3.8-2.6-5.4-4.8c-1.6-2.2-2.7-5.3-3.6-9c-0.9-3.7-1.4-8.4-1.4-13.9s0.5-10,1.4-13.8c0.9-3.7,2-6.7,3.6-8.9
			c1.6-2.2,3.4-3.9,5.4-4.9c2-1,4.2-1.5,6.4-1.5S354-89,356-88c2,1,3.8,2.7,5.4,4.9c1.6,2.2,2.8,5.3,3.7,9c0.9,3.7,1.4,8.3,1.4,13.8
			V-60.3z"/>
	</g>
	<path id="path5285" inkscape:connector-curvature="0" sodipodi:nodetypes="ccccccc" class="st0" d="M356-88l-18.2,50.5l1.7,3.8
		l3.7,1L361.5-83l-1.5-4.5L356-88"/>
</g>
</svg>
