<?xml version="1.0" encoding="UTF-8" standalone="no"?>
<!-- Created with Inkscape (http://www.inkscape.org/) -->

<svg
   xmlns:dc="http://purl.org/dc/elements/1.1/"
   xmlns:cc="http://creativecommons.org/ns#"
   xmlns:rdf="http://www.w3.org/1999/02/22-rdf-syntax-ns#"
   xmlns:svg="http://www.w3.org/2000/svg"
   xmlns="http://www.w3.org/2000/svg"
   xmlns:sodipodi="http://sodipodi.sourceforge.net/DTD/sodipodi-0.dtd"
   xmlns:inkscape="http://www.inkscape.org/namespaces/inkscape"
   width="360"
   height="56"
   viewBox="0 0 359.99999 55.999996"
   id="svg2"
   version="1.1"
   inkscape:version="0.91 r13725"
   sodipodi:docname="logo.svg">
  <defs
     id="defs4">
    <inkscape:path-effect
       effect="skeletal"
       id="path-effect4829"
       is_visible="true"
       pattern="m 0,4.9999847 c 0,-2.76 2.24,-4.999999958789 5,-4.999999958789 2.76,0 5,2.239999958789 5,4.999999958789 0,2.76 -2.24,5 -5,5 -2.76,0 -5,-2.24 -5,-5 z"
       copytype="single_stretched"
       prop_scale="1"
       scale_y_rel="false"
       spacing="0"
       normal_offset="0"
       tang_offset="0"
       prop_units="false"
       vertical_pattern="false"
       fuse_tolerance="0" />
    <inkscape:path-effect
       effect="skeletal"
       id="path-effect4244"
       is_visible="true"
       pattern="m 0,4.9999847 c 0,-2.76 2.24,-4.999999958789 5,-4.999999958789 2.76,0 5,2.239999958789 5,4.999999958789 0,2.76 -2.24,5 -5,5 -2.76,0 -5,-2.24 -5,-5 z"
       copytype="single_stretched"
       prop_scale="1"
       scale_y_rel="false"
       spacing="0"
       normal_offset="0"
       tang_offset="0"
       prop_units="false"
       vertical_pattern="false"
       fuse_tolerance="0" />
    <inkscape:path-effect
       effect="skeletal"
       id="path-effect4220"
       is_visible="true"
       pattern="m 0.07554199,84.999984 c 0,-2.76 2.24000001,-5 5.00000001,-5 2.76,0 5,2.24 5,5 0,2.76 -2.24,4.999998 -5,4.999998 -2.76,0 -5.00000001,-2.239998 -5.00000001,-4.999998 z"
       copytype="single_stretched"
       prop_scale="1"
       scale_y_rel="false"
       spacing="0"
       normal_offset="0"
       tang_offset="0"
       prop_units="false"
       vertical_pattern="false"
       fuse_tolerance="0" />
    <inkscape:path-effect
       effect="skeletal"
       id="path-effect4214"
       is_visible="true"
       pattern="m 130.10839,286.13774 c 0,-2.76 2.24,-5 5,-5 2.76,0 5,2.24 5,5 0,2.76 -2.24,5 -5,5 -2.76,0 -5,-2.24 -5,-5 z"
       copytype="single_stretched"
       prop_scale="1"
       scale_y_rel="false"
       spacing="0"
       normal_offset="0"
       tang_offset="0"
       prop_units="false"
       vertical_pattern="false"
       fuse_tolerance="0" />
    <inkscape:path-effect
       effect="powerstroke"
       id="path-effect4210"
       is_visible="true"
       offset_points="0,0.5"
       sort_points="true"
       interpolator_type="Linear"
       interpolator_beta="0.2"
       start_linecap_type="zerowidth"
       linejoin_type="round"
       miter_limit="4"
       end_linecap_type="zerowidth"
       cusp_linecap_type="round" />
    <inkscape:path-effect
       effect="skeletal"
       id="path-effect4206"
       is_visible="true"
       pattern="m 138.94722,187.8057 c 0,-2.76 2.24,-5 5,-5 2.76,0 5,2.24 5,5 0,2.76 -2.24,5 -5,5 -2.76,0 -5,-2.24 -5,-5 z"
       copytype="single_stretched"
       prop_scale="1"
       scale_y_rel="false"
       spacing="0"
       normal_offset="0"
       tang_offset="0"
       prop_units="false"
       vertical_pattern="false"
       fuse_tolerance="0" />
    <inkscape:path-effect
       effect="powerstroke"
       id="path-effect4200"
       is_visible="true"
       offset_points="0,0.5"
       sort_points="true"
       interpolator_type="Linear"
       interpolator_beta="0.2"
       start_linecap_type="zerowidth"
       linejoin_type="round"
       miter_limit="4"
       end_linecap_type="zerowidth"
       cusp_linecap_type="round" />
    <inkscape:path-effect
       effect="powerstroke"
       id="path-effect4196"
       is_visible="true"
       offset_points="0,0.5"
       sort_points="true"
       interpolator_type="Linear"
       interpolator_beta="0.2"
       start_linecap_type="zerowidth"
       linejoin_type="round"
       miter_limit="4"
       end_linecap_type="zerowidth"
       cusp_linecap_type="round" />
    <inkscape:path-effect
       effect="spiro"
       id="path-effect4194"
       is_visible="true" />
    <inkscape:path-effect
       effect="powerstroke"
       id="path-effect4190"
       is_visible="true"
       offset_points="0,0.5"
       sort_points="true"
       interpolator_type="Linear"
       interpolator_beta="0.2"
       start_linecap_type="zerowidth"
       linejoin_type="round"
       miter_limit="4"
       end_linecap_type="zerowidth"
       cusp_linecap_type="round" />
    <inkscape:path-effect
       effect="spiro"
       id="path-effect4188"
       is_visible="true" />
    <inkscape:path-effect
       effect="skeletal"
       id="path-effect4220-4"
       is_visible="true"
       pattern="m 150.07554,84.999984 c 0,-2.76 2.24,-5 5,-5 2.76,0 5,2.24 5,5 0,2.76 -2.24,5 -5,5 -2.76,0 -5,-2.24 -5,-5 z"
       copytype="single_stretched"
       prop_scale="1"
       scale_y_rel="false"
       spacing="0"
       normal_offset="0"
       tang_offset="0"
       prop_units="false"
       vertical_pattern="false"
       fuse_tolerance="0" />
  </defs>
  <sodipodi:namedview
     id="base"
     pagecolor="#ffffff"
     bordercolor="#666666"
     borderopacity="1.0"
     inkscape:pageopacity="0.0"
     inkscape:pageshadow="2"
     inkscape:zoom="1"
     inkscape:cx="479.60324"
     inkscape:cy="-144.58398"
     inkscape:document-units="px"
     inkscape:current-layer="layer2"
     showgrid="true"
     inkscape:window-width="1920"
     inkscape:window-height="1017"
     inkscape:window-x="1912"
     inkscape:window-y="-8"
     inkscape:window-maximized="1"
     showguides="true"
     fit-margin-top="0"
     fit-margin-left="0"
     fit-margin-right="0"
     fit-margin-bottom="0"
     units="px"
     inkscape:snap-center="false"
     inkscape:snap-page="true"
     inkscape:snap-bbox="true"
     inkscape:bbox-nodes="false"
     inkscape:snap-bbox-edge-midpoints="false"
     inkscape:snap-bbox-midpoints="true"
     inkscape:bbox-paths="false"
     inkscape:snap-intersection-paths="true"
     inkscape:object-nodes="true"
     inkscape:snap-midpoints="true"
     inkscape:snap-object-midpoints="true"
     inkscape:snap-text-baseline="true"
     inkscape:object-paths="false"
     inkscape:snap-smooth-nodes="true"
     inkscape:snap-grids="false"
     inkscape:snap-nodes="true"
     inkscape:snap-others="true"
     inkscape:snap-to-guides="true">
    <inkscape:grid
       type="xygrid"
       id="grid4216"
       originx="-78.510397"
       originy="-11.585922" />
  </sodipodi:namedview>
  <metadata
     id="metadata7">
    <rdf:RDF>
      <cc:Work
         rdf:about="">
        <dc:format>image/svg+xml</dc:format>
        <dc:type
           rdf:resource="http://purl.org/dc/dcmitype/StillImage" />
        <dc:title></dc:title>
      </cc:Work>
    </rdf:RDF>
  </metadata>
  <g
     inkscape:groupmode="layer"
     id="layer3"
     inkscape:label="レイヤー 3"
     style="display:inline"
     transform="translate(-78.510405,-245.41923)">
    <flowRoot
       xml:space="preserve"
       id="flowRoot4248"
       style="font-style:normal;font-weight:normal;font-size:80px;line-height:125%;font-family:sans-serif;letter-spacing:0px;word-spacing:0px;fill:#000000;fill-opacity:1;stroke:none;stroke-width:1px;stroke-linecap:butt;stroke-linejoin:miter;stroke-opacity:1"
       transform="translate(0,-1.5258789e-5)"><flowRegion
         id="flowRegion4250"><rect
           id="rect4252"
           width="315.25473"
           height="111.73585"
           x="359.15094"
           y="110.81648" /></flowRegion><flowPara
         id="flowPara4254" /></flowRoot>    <g
       id="g4339"
       style="fill:none" />
    <g
       id="g4385"
       style="fill-opacity:1;stroke:#000000;stroke-opacity:1" />
  </g>
  <g
     inkscape:groupmode="layer"
     id="layer4"
     inkscape:label="レイヤー 4"
     style="display:inline"
     transform="translate(-78.510405,-245.41923)" />
  <g
     inkscape:groupmode="layer"
     id="layer8"
     inkscape:label="X_red"
     transform="translate(-78.510405,-245.41923)" />
  <g
     inkscape:groupmode="layer"
     id="layer9"
     inkscape:label="X_green"
     transform="translate(-78.510405,-245.41923)" />
  <g
     inkscape:groupmode="layer"
     id="layer10"
     inkscape:label="X_bule"
     style="display:inline"
     transform="translate(-78.510405,-245.41923)" />
  <g
     inkscape:groupmode="layer"
     id="layer2"
     inkscape:label="レイヤー 2"
     style="display:inline"
     transform="translate(-217.45762,-428.22495)">
    <g
       id="g5287"
       transform="matrix(0.49999998,0,0,0.49999998,167.98402,218.31953)"
       style="fill:#ebebeb;fill-opacity:1">
      <g
         id="text4141"
         style="font-style:normal;font-weight:normal;font-size:247.61811829px;line-height:125%;font-family:sans-serif;letter-spacing:0px;word-spacing:0px;opacity:1;fill:#ebebeb;fill-opacity:1;stroke:none;stroke-width:1px;stroke-linecap:butt;stroke-linejoin:miter;stroke-opacity:1">
        <path
           id="path5263"
           style="font-style:normal;font-variant:normal;font-weight:normal;font-stretch:normal;font-size:123.80905914px;font-family:Aleo;-inkscape-font-specification:Aleo;fill:#ebebeb;fill-opacity:1"
           d="m 162.47097,449.00619 c -7.67616,0 -13.37138,1.73332 -17.58089,5.4476 -3.96189,3.46665 -5.94283,7.55235 -5.94283,12.62852 0,4.95236 1.73333,8.79044 5.19998,11.63805 1.48571,1.23809 3.34284,2.47618 5.57141,3.46665 2.22856,0.99048 6.06664,2.22857 11.51424,3.96189 1.98094,0.49524 3.71427,1.23809 5.19998,1.98095 1.48571,0.74285 2.7238,1.85714 3.71427,2.97142 0.99047,1.11428 1.48571,2.84761 1.48571,5.19998 0,2.35237 -1.11428,4.45712 -3.21903,6.31426 -2.35238,1.98094 -5.57141,3.09523 -9.65711,3.09523 -4.95236,0 -9.28568,-0.74286 -12.75233,-2.47619 -0.49524,-4.95236 -0.74286,-7.55235 -0.74286,-7.92378 -0.24762,-0.99047 -0.86666,-1.4857 -1.85713,-1.4857 l -4.45713,0 0,16.34279 c 6.68569,2.22856 13.619,3.34285 20.30468,3.34285 6.68569,0 12.38091,-2.10476 16.59042,-5.81903 4.0857,-3.59046 6.06664,-8.41902 6.06664,-14.36185 0,-4.58094 -1.60952,-8.1714 -5.07617,-10.8952 -1.48571,-1.23809 -3.21903,-2.47618 -5.19998,-3.21903 l -5.94283,-2.22857 c -1.98095,-0.74285 -4.58094,-1.3619 -7.67617,-2.35237 -3.09522,-0.99047 -5.44759,-2.35237 -7.18092,-4.33332 -0.99047,-0.99047 -1.48571,-2.59999 -1.48571,-4.70474 0,-2.10475 1.11428,-3.96189 3.34284,-5.69522 2.22857,-1.73332 5.07618,-2.7238 8.54283,-2.7238 l 0.12381,0 c 2.7238,0 5.94283,0.49524 9.65711,1.3619 0.49523,5.19998 0.74285,7.92378 0.74285,8.1714 0.24762,1.23809 0.86666,1.73333 2.10475,1.73333 l 4.82856,0 0,-11.76186 0,-4.33332 c -6.56188,-2.22856 -12.00948,-3.34284 -16.3428,-3.34284 l 0.12381,0 z"
           inkscape:connector-curvature="0" />
        <path
           id="path5265"
           style="font-style:normal;font-variant:normal;font-weight:normal;font-stretch:normal;font-size:123.80905914px;font-family:Aleo;-inkscape-font-specification:Aleo;fill:#ebebeb;fill-opacity:1"
           d="m 208.7949,458.41568 0,-36.8951 -21.29515,0 0,5.19998 c 0,1.23809 0.74285,2.10475 1.98094,2.35237 0.74285,0.24762 3.46665,0.74285 8.1714,1.48571 l 0,73.17115 -6.93331,1.3619 c -1.23809,0.24762 -1.98094,1.11428 -1.98094,2.35237 l 0,5.19998 28.97132,0 0,-5.19998 c 0,-1.23809 -0.74286,-2.10475 -1.98095,-2.35237 -0.49524,-0.12381 -2.22856,-0.49524 -5.4476,-1.11428 l -1.48571,-0.24762 0,-37.14272 c 5.19998,-5.81902 10.64758,-8.79044 16.83804,-8.79044 8.79044,0 13.24756,5.07617 13.24756,14.9809 l 0,39.86651 19.93326,0 0,-5.19998 c 0,-1.23809 -0.61904,-2.10475 -1.85713,-2.35237 -0.74286,-0.24762 -3.09523,-0.74285 -7.05712,-1.48571 l 0,-30.82845 c 0,-7.18093 -1.85713,-13.12376 -5.4476,-17.33327 -3.71427,-4.33332 -8.91425,-6.43807 -15.59994,-6.43807 -7.55235,0 -14.11423,3.21903 -20.05707,9.40949 z"
           inkscape:connector-curvature="0" />
        <path
           id="path5267"
           style="font-style:normal;font-variant:normal;font-weight:normal;font-stretch:normal;font-size:123.80905914px;font-family:Aleo;-inkscape-font-specification:Aleo;fill:#ebebeb;fill-opacity:1"
           d="m 274.78512,435.75862 c 0.74286,0.74285 1.48571,1.23809 2.47618,1.73332 0.99048,0.49524 1.98095,0.61905 2.97142,0.61905 0.99047,0 1.98095,-0.12381 2.97142,-0.61905 0.99047,-0.49523 1.73333,-0.99047 2.47618,-1.73332 0.74286,-0.74286 1.23809,-1.48571 1.73333,-2.47618 0.49523,-0.99048 0.74285,-1.98095 0.74285,-2.97142 0,-0.99047 -0.24762,-2.10476 -0.74285,-3.09523 -0.49524,-0.99047 -0.99047,-1.85713 -1.73333,-2.59999 -0.74285,-0.74285 -1.48571,-1.23809 -2.47618,-1.73332 -0.99047,-0.49524 -1.98095,-0.61905 -2.97142,-0.61905 -0.99047,0 -1.98094,0.12381 -2.97142,0.61905 -0.99047,0.49523 -1.73332,0.99047 -2.47618,1.73332 -0.74285,0.74286 -1.23809,1.60952 -1.73332,2.59999 -0.49524,0.99047 -0.61905,2.10476 -0.61905,3.09523 0,0.99047 0.12381,1.98094 0.61905,2.97142 0.49523,0.99047 0.99047,1.73332 1.73332,2.47618 z m 17.95232,69.20926 c -1.11428,-0.24762 -7.05712,-1.3619 -7.05712,-1.3619 l 0,-53.60932 -19.93326,0 0,5.19998 c 0,1.11428 0.74286,2.10475 1.85714,2.35237 1.11428,0.24762 7.18092,1.3619 7.18092,1.3619 l 0,44.69507 c 0,0 -6.06664,1.11428 -7.18092,1.3619 -1.11428,0.24762 -1.85714,1.23809 -1.85714,2.35237 l 0,5.32379 28.84751,0 0,-5.32379 c 0,-1.11428 -0.74285,-2.10475 -1.85713,-2.35237 z"
           inkscape:connector-curvature="0" />
        <path
           id="path5269"
           style="font-style:normal;font-variant:normal;font-weight:normal;font-stretch:normal;font-size:123.80905914px;font-family:Aleo;-inkscape-font-specification:Aleo;fill:#ebebeb;fill-opacity:1"
           d="m 364.0592,504.96788 c -0.49524,0 -1.85714,-0.24762 -3.96189,-0.74285 l -3.21904,-0.49524 -17.33327,-22.03801 c -0.99047,-1.73333 -2.22856,-2.84761 -3.71427,-3.83808 1.23809,-0.74286 2.35237,-1.85714 3.59046,-3.34285 l 14.60947,-15.59994 c 4.0857,-0.74285 6.68569,-1.23809 7.67616,-1.48571 0.99048,-0.24762 1.60952,-0.99047 1.60952,-2.22856 l 0,-5.19998 -0.74285,0 -10.15235,0 -15.35232,0 0,5.19998 c 0,1.23809 0.74286,2.10475 1.98095,2.35237 0.49523,0.12381 0.99047,0.12381 1.98094,0.37143 0.49524,0 0.99047,0.24762 1.48571,0.24762 l -14.11423,15.1047 c -0.99048,1.23809 -2.47618,1.73333 -3.96189,1.73333 l -2.7238,0 0,-53.60932 -11.14282,0 -8.91425,0 0,5.32379 c 0,1.23809 0.61905,1.98094 1.85714,2.22856 0.74285,0.24762 3.09522,0.74285 7.05711,1.48571 l 0,73.17115 -7.05711,1.3619 c -1.23809,0.24762 -1.85714,1.11428 -1.85714,2.35237 l 0,5.32379 28.97132,0 0,-5.32379 c 0,-1.23809 -0.74285,-2.10475 -1.98094,-2.35237 -4.20951,-0.86666 -6.43808,-1.3619 -6.93331,-1.3619 l 0,-20.92373 2.97142,0 c 1.23809,0 2.22856,0.12381 2.8476,0.37143 0.61905,0.24762 1.23809,0.74285 1.85714,1.60952 l 20.5523,25.75228 c 1.23809,1.48571 2.59999,2.22856 4.20951,2.22856 l 11.63805,0 0,-5.4476 c 0,-1.23809 -0.61904,-1.98094 -1.85713,-2.22856 l 0.12381,0 z"
           inkscape:connector-curvature="0" />
        <path
           id="path5271"
           style="font-style:normal;font-variant:normal;font-weight:normal;font-stretch:normal;font-size:123.80905914px;font-family:Aleo;-inkscape-font-specification:Aleo;fill:#ebebeb;fill-opacity:1"
           d="m 398.33302,449.00619 c -4.58093,0 -8.66663,0.74285 -12.3809,2.22856 -3.71428,1.48571 -6.93331,3.71427 -9.5333,6.43807 -2.59999,2.7238 -4.58094,6.19045 -6.06665,10.15234 -1.4857,3.96189 -1.98094,8.41902 -1.98094,13.37138 0,4.95236 0.49524,9.40949 1.98094,13.37138 1.48571,3.96189 3.46666,7.42854 6.06665,10.15234 2.59999,2.7238 5.81902,4.95237 9.5333,6.43807 3.71427,1.48571 7.79997,2.22857 12.3809,2.22857 4.58094,0 8.66664,-0.74286 12.38091,-2.22857 3.71427,-1.4857 6.93331,-3.71427 9.5333,-6.43807 2.59999,-2.7238 4.58093,-6.19045 5.94283,-10.15234 1.3619,-3.96189 2.10475,-8.41902 2.10475,-13.37138 0,-4.95236 -0.74285,-9.40949 -2.10475,-13.37138 -1.3619,-3.96189 -3.34284,-7.42854 -5.94283,-10.15234 -2.59999,-2.7238 -5.81903,-4.95236 -9.5333,-6.43807 -3.71427,-1.48571 -7.79997,-2.22856 -12.38091,-2.22856 z m 0,55.96169 c -3.21903,0 -5.94283,-0.74285 -8.1714,-1.73333 -2.22856,-0.99047 -4.2095,-2.47618 -5.69521,-4.45712 -1.48571,-1.98095 -2.7238,-4.45713 -3.46666,-7.42855 -0.74285,-2.97141 -1.23809,-6.19045 -1.23809,-9.90472 0,-3.71427 0.49524,-7.18093 1.23809,-10.15234 0.74286,-2.97142 1.98095,-5.4476 3.46666,-7.42855 1.48571,-1.98094 3.46665,-3.71427 5.69521,-4.70474 2.22857,-0.99047 4.95237,-1.48571 8.1714,-1.48571 6.19045,0 10.8952,1.98095 13.86662,6.19045 2.97141,4.20951 4.58093,10.02854 4.58093,17.45708 0,7.42854 -1.60952,13.24757 -4.58093,17.45708 -2.97142,4.20951 -7.67617,6.19045 -13.86662,6.19045 z"
           inkscape:connector-curvature="0" />
        <path
           id="path5273"
           style="font-style:normal;font-variant:normal;font-weight:normal;font-stretch:normal;font-size:123.80905914px;font-family:Aleo;-inkscape-font-specification:Aleo;fill:#ebebeb;fill-opacity:1"
           d="m 459.66106,449.00619 c -7.67616,0 -13.37137,1.73332 -17.58088,5.4476 -3.96189,3.46665 -5.94284,7.55235 -5.94284,12.62852 0,4.95236 1.73333,8.79044 5.19998,11.63805 1.48571,1.23809 3.34285,2.47618 5.57141,3.46665 2.22856,0.99048 6.06665,2.22857 11.51424,3.96189 1.98095,0.49524 3.71428,1.23809 5.19998,1.98095 1.48571,0.74285 2.7238,1.85714 3.71428,2.97142 0.99047,1.11428 1.4857,2.84761 1.4857,5.19998 0,2.35237 -1.11428,4.45712 -3.21903,6.31426 -2.35237,1.98094 -5.57141,3.09523 -9.65711,3.09523 -4.95236,0 -9.28568,-0.74286 -12.75233,-2.47619 -0.49524,-4.95236 -0.74285,-7.55235 -0.74285,-7.92378 -0.24762,-0.99047 -0.86667,-1.4857 -1.85714,-1.4857 l -4.45713,0 0,16.34279 c 6.68569,2.22856 13.619,3.34285 20.30469,3.34285 6.68569,0 12.3809,-2.10476 16.59041,-5.81903 4.0857,-3.59046 6.06665,-8.41902 6.06665,-14.36185 0,-4.58094 -1.60952,-8.1714 -5.07617,-10.8952 -1.48571,-1.23809 -3.21904,-2.47618 -5.19999,-3.21903 l -5.94283,-2.22857 c -1.98095,-0.74285 -4.58094,-1.3619 -7.67616,-2.35237 -3.09523,-0.99047 -5.4476,-2.35237 -7.18093,-4.33332 -0.99047,-0.99047 -1.48571,-2.59999 -1.48571,-4.70474 0,-2.10475 1.11429,-3.96189 3.34285,-5.69522 2.22856,-1.73332 5.07617,-2.7238 8.54282,-2.7238 l 0.12381,0 c 2.7238,0 5.94284,0.49524 9.65711,1.3619 0.49524,5.19998 0.74285,7.92378 0.74285,8.1714 0.24762,1.23809 0.86667,1.73333 2.10476,1.73333 l 4.82855,0 0,-11.76186 0,-4.33332 c -6.56188,-2.22856 -12.00948,-3.34284 -16.34279,-3.34284 l 0.1238,0 z"
           inkscape:connector-curvature="0" />
        <path
           id="path5275"
           style="font-style:normal;font-variant:normal;font-weight:normal;font-stretch:normal;font-size:123.80905914px;font-family:Aleo;-inkscape-font-specification:Aleo;fill:#ebebeb;fill-opacity:1"
           d="m 540.15631,504.96788 c -0.74286,-0.24762 -4.45713,-0.99047 -6.19046,-1.3619 l 0,-31.32369 c 0,-3.46665 -0.37142,-6.68569 -1.3619,-9.65711 -0.99047,-2.97141 -2.35237,-5.4476 -4.20951,-7.42854 -1.85713,-1.98095 -4.08569,-3.46665 -6.80949,-4.70474 -2.7238,-1.2381 -5.94284,-1.73333 -9.40949,-1.73333 -4.95236,0 -9.40949,0.74285 -13.37138,2.47618 -3.96189,1.73333 -7.67616,4.0857 -11.14282,7.42854 l 1.98095,3.46666 c 0.24762,0.49523 0.74285,1.11428 1.23809,1.48571 0.49524,0.37142 1.23809,0.49523 1.98094,0.49523 0.99048,0 1.85714,-0.24762 2.84761,-0.99047 0.99048,-0.74286 2.22857,-1.3619 3.59047,-2.22856 1.3619,-0.86667 2.8476,-1.48571 4.70474,-2.22857 1.85714,-0.74285 4.0857,-1.11428 6.8095,-1.11428 4.0857,0 7.18092,1.3619 9.28568,3.83808 2.10475,2.47618 3.21903,6.19046 3.21903,11.14282 l 0,4.82855 c -7.18092,0 -13.12376,0.49524 -18.07612,1.60952 -4.95236,1.11428 -8.91425,2.7238 -11.88567,4.45713 -2.97142,1.73332 -5.32379,3.96188 -6.68569,6.19045 -1.3619,2.22856 -1.98094,4.70474 -1.98094,7.18092 0,2.84761 0.37142,5.32379 1.3619,7.42855 0.99047,2.10475 2.22856,3.83808 3.71427,5.19998 1.48571,1.3619 3.46665,2.22856 5.57141,2.97141 2.10475,0.74286 4.2095,1.11429 6.68569,1.11429 2.47618,0 4.70474,-0.12381 6.68568,-0.61905 1.98095,-0.49524 3.71428,-1.11428 5.4476,-1.85713 1.73333,-0.74286 3.46666,-1.73333 4.95237,-2.97142 1.4857,-1.23809 3.21903,-2.59999 4.95236,-4.0857 l 1.23809,5.94283 c 0.24762,0.99048 0.49523,1.73333 1.23809,1.98095 0.74285,0.24762 1.60952,0.49523 2.59999,0.49523 l 3.96189,0 0.86666,0 8.04759,0 0,-5.32378 c 0,-1.11429 -0.74285,-2.10476 -1.85713,-2.35238 l 0,0.24762 z m -17.08565,-7.67616 c -1.2381,1.23809 -2.47619,2.47618 -3.71428,3.46665 -1.23809,0.99048 -2.59999,1.98095 -4.0857,2.7238 -1.4857,0.74286 -2.97141,1.23809 -4.58093,1.60952 -1.60952,0.37143 -3.21904,0.61905 -5.19998,0.61905 -1.48571,0 -2.84761,-0.24762 -4.0857,-0.61905 -1.23809,-0.37143 -2.22856,-0.86666 -3.21904,-1.60952 -0.99047,-0.74285 -1.73332,-1.73332 -2.22856,-2.97141 -0.49523,-1.2381 -0.86666,-2.47619 -0.86666,-4.20951 0,-1.73333 0.49523,-3.21904 1.48571,-4.70475 0.99047,-1.48571 2.7238,-2.7238 4.95236,-3.71427 2.22856,-0.99047 5.19998,-1.98094 8.66663,-2.59999 3.46666,-0.61904 7.79997,-0.86666 12.87615,-0.86666 l 0,12.87614 z"
           inkscape:connector-curvature="0" />
        <path
           id="path5277"
           style="font-style:normal;font-variant:normal;font-weight:normal;font-stretch:normal;font-size:123.80905914px;font-family:Aleo;-inkscape-font-specification:Aleo;fill:#ebebeb;fill-opacity:1"
           d="m 558.1918,435.75862 c 0.74286,0.74285 1.48571,1.23809 2.47618,1.73332 0.99047,0.49524 1.98095,0.61905 2.97142,0.61905 0.99047,0 1.98094,-0.12381 2.97142,-0.61905 0.99047,-0.49523 1.73332,-0.99047 2.47618,-1.73332 0.74285,-0.74286 1.23809,-1.48571 1.73332,-2.47618 0.49524,-0.99048 0.74286,-1.98095 0.74286,-2.97142 0,-0.99047 -0.24762,-2.10476 -0.74286,-3.09523 -0.49523,-0.99047 -0.99047,-1.85713 -1.73332,-2.59999 -0.74286,-0.74285 -1.48571,-1.23809 -2.47618,-1.73332 -0.99048,-0.49524 -1.98095,-0.61905 -2.97142,-0.61905 -0.99047,0 -1.98095,0.12381 -2.97142,0.61905 -0.99047,0.49523 -1.73332,0.99047 -2.47618,1.73332 -0.74285,0.74286 -1.23809,1.60952 -1.73333,2.59999 -0.49523,0.99047 -0.61904,2.10476 -0.61904,3.09523 0,0.99047 0.12381,1.98094 0.61904,2.97142 0.49524,0.99047 0.99048,1.73332 1.73333,2.47618 z m 17.95231,69.20926 c -1.11428,-0.24762 -7.05711,-1.3619 -7.05711,-1.3619 l 0,-53.60932 -19.93326,0 0,5.19998 c 0,1.11428 0.74285,2.10475 1.85714,2.35237 1.11428,0.24762 7.18092,1.3619 7.18092,1.3619 l 0,44.69507 c 0,0 -6.06664,1.11428 -7.18092,1.3619 -1.11429,0.24762 -1.85714,1.23809 -1.85714,2.35237 l 0,5.32379 28.84751,0 0,-5.32379 c 0,-1.11428 -0.74285,-2.10475 -1.85714,-2.35237 z"
           inkscape:connector-curvature="0" />
        <path
           id="path5279"
           style="font-style:normal;font-variant:normal;font-weight:normal;font-stretch:normal;font-size:123.80905914px;font-family:Aleo;-inkscape-font-specification:Aleo;fill:#ebebeb;fill-opacity:1"
           d="m 637.18971,522.79639 -48.78077,0 0,7.42854 48.78077,0 0,-7.42854 z"
           inkscape:connector-curvature="0" />
        <path
           id="path5281"
           style="font-style:normal;font-variant:normal;font-weight:normal;font-stretch:normal;font-size:123.80905914px;font-family:Aleo;-inkscape-font-specification:Aleo;fill:#ebebeb;fill-opacity:1"
           d="m 678.87273,423.00628 c -3.71427,0 -7.42854,0.49524 -10.64758,1.60952 -3.21903,1.11428 -6.19045,2.7238 -8.66663,4.82856 -2.47618,2.10475 -4.58094,4.70474 -6.31426,7.79997 -1.73333,3.09522 -2.84761,6.80949 -3.34285,10.77138 l 5.69522,0.99048 0.86666,0 0.61905,0 c 0.99047,0 1.85713,-0.24762 2.59999,-0.74286 0.74285,-0.49523 1.23809,-1.3619 1.48571,-2.59999 0.49523,-1.98094 1.23809,-3.71427 2.22856,-5.32379 0.99047,-1.60952 2.22856,-2.97141 3.71427,-4.20951 1.48571,-1.23809 3.09523,-1.98094 5.07617,-2.72379 1.98095,-0.74286 3.96189,-0.99048 6.19046,-0.99048 2.22856,0 4.2095,0.37143 6.19045,0.99048 1.98094,0.61904 3.46665,1.4857 4.95236,2.72379 1.48571,1.2381 2.7238,2.7238 3.46665,4.70475 0.74286,1.98094 1.11429,4.20951 1.11429,6.68569 0,2.22856 -0.37143,4.33331 -1.11429,6.31426 -0.74285,1.98094 -1.98094,3.46665 -3.71427,4.82855 -1.73332,1.3619 -3.71427,2.47618 -6.43807,3.21904 -2.7238,0.74285 -5.94283,1.3619 -9.65711,1.3619 l 0,8.04759 c 4.70475,0 8.41902,0.49523 11.39044,1.23809 2.97142,0.74285 5.19998,1.73332 6.93331,3.21903 1.73332,1.48571 2.8476,3.21904 3.46665,5.19998 0.61904,1.98095 0.99047,4.0857 0.99047,6.56188 0,1.98095 -0.49523,3.83808 -1.23809,5.81903 -0.74285,1.98094 -1.98094,3.83808 -3.46665,5.4476 -1.48571,1.60952 -3.59047,2.97142 -5.94284,3.96189 -2.35237,0.99047 -5.07617,1.48571 -8.1714,1.48571 -3.09522,0 -5.5714,-0.49524 -7.67616,-1.48571 -2.10475,-0.99047 -3.83808,-1.98095 -5.32379,-3.21904 -1.48571,-1.23809 -2.59999,-2.7238 -3.34284,-4.20951 -0.74286,-1.4857 -1.48571,-2.8476 -1.98095,-4.08569 0,-0.24762 -0.24761,-0.37143 -0.24761,-0.61905 0,-0.24762 -0.24762,-0.24762 -0.24762,-0.49524 -0.24762,-0.74285 -0.74286,-1.3619 -1.3619,-1.73332 -0.61905,-0.37143 -1.3619,-0.49524 -2.10476,-0.49524 -0.86666,0 -1.85713,0.12381 -2.7238,0.49524 l -4.70474,1.98094 c 0.99047,3.21904 2.35237,6.43807 3.83808,9.28568 1.48571,2.84761 3.46666,5.32379 5.69522,7.30474 2.22856,1.98094 5.19998,3.71427 8.54282,4.95236 3.34285,1.23809 7.30474,1.73333 12.00948,1.73333 4.0857,0 7.92378,-0.61905 11.51424,-1.85714 3.59047,-1.23809 6.68569,-3.09523 9.40949,-5.32379 2.7238,-2.22856 4.70475,-5.07617 6.19046,-8.29521 1.4857,-3.21903 2.35237,-6.9333 2.35237,-11.019 0,-5.4476 -1.3619,-9.90473 -4.33332,-13.49519 -2.97142,-3.59046 -7.42854,-6.19045 -13.12376,-7.67616 2.35237,-0.74286 4.45713,-1.60952 6.43807,-2.84761 1.98095,-1.23809 3.59046,-2.47618 4.95236,-4.20951 1.3619,-1.73333 2.35238,-3.59046 3.09523,-5.81902 0.74285,-2.22857 1.11428,-4.82856 1.11428,-7.55236 0,-3.46665 -0.74285,-6.43807 -1.98094,-9.16187 -1.23809,-2.7238 -3.09523,-5.19998 -5.32379,-7.18092 -2.22857,-1.98095 -4.95236,-3.71427 -8.1714,-4.70475 -3.21904,-0.99047 -6.68569,-1.48571 -10.39996,-1.48571 l -0.37143,0 z"
           inkscape:connector-curvature="0" />
        <path
           id="path5283"
           style="font-style:normal;font-variant:normal;font-weight:normal;font-stretch:normal;font-size:123.80905914px;font-family:Aleo;-inkscape-font-specification:Aleo;fill:#ebebeb;fill-opacity:1"
           d="m 778.9472,468.3204 c 0,-7.67616 -0.86667,-14.48566 -2.59999,-20.18088 -1.73333,-5.69521 -3.83808,-10.39996 -6.8095,-14.11423 -2.97142,-3.71427 -6.31426,-6.56188 -10.27615,-8.29521 -3.96189,-1.73332 -8.1714,-2.7238 -12.62853,-2.7238 -4.45712,0 -8.66663,0.99048 -12.62852,2.7238 -3.96189,1.73333 -7.30474,4.58094 -10.27615,8.29521 -2.97142,3.71427 -5.07617,8.41902 -6.8095,14.11423 -1.73333,5.69522 -2.47618,12.50472 -2.47618,20.18088 0,7.67616 0.74285,14.48566 2.47618,20.18088 1.73333,5.69521 3.83808,10.39996 6.8095,14.11423 2.97141,3.71427 6.31426,6.56188 10.27615,8.29521 3.96189,1.73332 8.1714,2.7238 12.62852,2.7238 4.45713,0 8.66664,-0.99048 12.62853,-2.7238 3.96189,-1.73333 7.30473,-4.58094 10.27615,-8.29521 2.97142,-3.71427 5.07617,-8.41902 6.8095,-14.11423 1.73332,-5.69522 2.47618,-12.50472 2.47618,-20.18088 l 0.12381,0 z m -11.51425,0 c 0,6.68569 -0.61904,12.50471 -1.73332,17.08565 -1.11428,4.58094 -2.47618,8.29521 -4.45713,11.01901 -1.98094,2.7238 -4.20951,4.82855 -6.68569,6.06664 -2.47618,1.23809 -5.19998,1.85714 -7.92378,1.85714 -2.7238,0 -5.4476,-0.61905 -7.92378,-1.85714 -2.47618,-1.23809 -4.70474,-3.21904 -6.68569,-5.94283 -1.98094,-2.7238 -3.34284,-6.56188 -4.45712,-11.14282 -1.11428,-4.58094 -1.73333,-10.39996 -1.73333,-17.08565 0,-6.68569 0.61905,-12.38091 1.73333,-16.96184 1.11428,-4.58094 2.47618,-8.29521 4.45712,-11.01901 1.98095,-2.7238 4.20951,-4.82855 6.68569,-6.06664 2.47618,-1.23809 5.19998,-1.85714 7.92378,-1.85714 2.7238,0 5.32379,0.61905 7.79997,1.85714 2.47618,1.23809 4.70475,3.34284 6.68569,6.06664 1.98095,2.7238 3.46666,6.56188 4.58094,11.14282 1.11428,4.58093 1.73332,10.27615 1.73332,16.96184 l 0,-0.12381 z"
           inkscape:connector-curvature="0" />
      </g>
      <path
         sodipodi:nodetypes="ccccccc"
         inkscape:connector-curvature="0"
         id="path5285"
         d="m 754.433,434.27291 -22.40944,62.27596 2.1496,4.73919 4.53609,1.20364 22.40944,-62.15215 -1.84285,-5.53332 -4.84284,-0.53332"
         style="fill:#ebebeb;fill-opacity:1;fill-rule:evenodd;stroke:#000000;stroke-width:0.25;stroke-linecap:butt;stroke-linejoin:miter;stroke-miterlimit:4;stroke-dasharray:none;stroke-opacity:1" />
    </g>
  </g>
</svg>
